<svg width="152" height="24" viewBox="0 0 152 24" fill="none" xmlns="http://www.w3.org/2000/svg">
<path d="M21.9706 10.7231L17.7453 14.4131L19.011 19.9069C19.078 20.1941 19.0589 20.4947 18.956 20.771C18.8532 21.0474 18.6713 21.2874 18.433 21.4608C18.1946 21.6343 17.9105 21.7336 17.616 21.7464C17.3216 21.7591 17.0299 21.6847 16.7775 21.5325L11.9891 18.6263L7.21111 21.5325C6.95869 21.6847 6.66702 21.7591 6.37258 21.7464C6.07814 21.7336 5.79399 21.6343 5.55565 21.4608C5.31731 21.2874 5.13537 21.0474 5.03255 20.771C4.92974 20.4947 4.91063 20.1941 4.97761 19.9069L6.24145 14.4188L2.01522 10.7231C1.79169 10.5302 1.63006 10.2756 1.55059 9.99108C1.47112 9.70661 1.47735 9.40499 1.5685 9.12404C1.65965 8.8431 1.83166 8.59534 2.06296 8.41183C2.29427 8.22832 2.57457 8.11724 2.86871 8.0925L8.43935 7.60969L10.6138 2.41969C10.7274 2.14736 10.9189 1.91474 11.1643 1.75112C11.4097 1.5875 11.698 1.50019 11.9929 1.50019C12.2878 1.50019 12.5761 1.5875 12.8215 1.75112C13.0669 1.91474 13.2584 2.14736 13.372 2.41969L15.553 7.60969L21.1218 8.0925C21.4159 8.11724 21.6962 8.22832 21.9275 8.41183C22.1588 8.59534 22.3308 8.8431 22.422 9.12404C22.5131 9.40499 22.5194 9.70661 22.4399 9.99108C22.3604 10.2756 22.1988 10.5302 21.9753 10.7231H21.9706Z" fill="#FACC15"/>
<path d="M53.9706 10.7231L49.7453 14.4131L51.011 19.9069C51.078 20.1941 51.0589 20.4947 50.956 20.771C50.8532 21.0474 50.6713 21.2874 50.433 21.4608C50.1946 21.6343 49.9105 21.7336 49.616 21.7464C49.3216 21.7591 49.0299 21.6847 48.7775 21.5325L43.9891 18.6263L39.2111 21.5325C38.9587 21.6847 38.667 21.7591 38.3726 21.7464C38.0781 21.7336 37.794 21.6343 37.5557 21.4608C37.3173 21.2874 37.1354 21.0474 37.0326 20.771C36.9297 20.4947 36.9106 20.1941 36.9776 19.9069L38.2414 14.4188L34.0152 10.7231C33.7917 10.5302 33.6301 10.2756 33.5506 9.99108C33.4711 9.70661 33.4773 9.40499 33.5685 9.12404C33.6596 8.8431 33.8317 8.59534 34.063 8.41183C34.2943 8.22832 34.5746 8.11724 34.8687 8.0925L40.4393 7.60969L42.6138 2.41969C42.7274 2.14736 42.9189 1.91474 43.1643 1.75112C43.4097 1.5875 43.698 1.50019 43.9929 1.50019C44.2878 1.50019 44.5761 1.5875 44.8215 1.75112C45.0669 1.91474 45.2584 2.14736 45.372 2.41969L47.553 7.60969L53.1218 8.0925C53.4159 8.11724 53.6962 8.22832 53.9275 8.41183C54.1588 8.59534 54.3308 8.8431 54.422 9.12404C54.5131 9.40499 54.5194 9.70661 54.4399 9.99108C54.3604 10.2756 54.1988 10.5302 53.9753 10.7231H53.9706Z" fill="#FACC15"/>
<path d="M85.9706 10.7231L81.7453 14.4131L83.011 19.9069C83.078 20.1941 83.0589 20.4947 82.956 20.771C82.8532 21.0474 82.6713 21.2874 82.433 21.4608C82.1946 21.6343 81.9105 21.7336 81.616 21.7464C81.3216 21.7591 81.0299 21.6847 80.7775 21.5325L75.9891 18.6263L71.2111 21.5325C70.9587 21.6847 70.667 21.7591 70.3726 21.7464C70.0781 21.7336 69.794 21.6343 69.5557 21.4608C69.3173 21.2874 69.1354 21.0474 69.0326 20.771C68.9297 20.4947 68.9106 20.1941 68.9776 19.9069L70.2414 14.4188L66.0152 10.7231C65.7917 10.5302 65.6301 10.2756 65.5506 9.99108C65.4711 9.70661 65.4773 9.40499 65.5685 9.12404C65.6596 8.8431 65.8317 8.59534 66.063 8.41183C66.2943 8.22832 66.5746 8.11724 66.8687 8.0925L72.4393 7.60969L74.6138 2.41969C74.7274 2.14736 74.9189 1.91474 75.1643 1.75112C75.4097 1.5875 75.698 1.50019 75.9929 1.50019C76.2878 1.50019 76.5761 1.5875 76.8215 1.75112C77.0669 1.91474 77.2584 2.14736 77.372 2.41969L79.553 7.60969L85.1218 8.0925C85.4159 8.11724 85.6962 8.22832 85.9275 8.41183C86.1588 8.59534 86.3308 8.8431 86.422 9.12404C86.5131 9.40499 86.5194 9.70661 86.4399 9.99108C86.3604 10.2756 86.1988 10.5302 85.9753 10.7231H85.9706Z" fill="#FACC15"/>
<path d="M117.971 10.7231L113.745 14.4131L115.011 19.9069C115.078 20.1941 115.059 20.4947 114.956 20.771C114.853 21.0474 114.671 21.2874 114.433 21.4608C114.195 21.6343 113.91 21.7336 113.616 21.7464C113.322 21.7591 113.03 21.6847 112.777 21.5325L107.989 18.6263L103.211 21.5325C102.959 21.6847 102.667 21.7591 102.373 21.7464C102.078 21.7336 101.794 21.6343 101.556 21.4608C101.317 21.2874 101.135 21.0474 101.033 20.771C100.93 20.4947 100.911 20.1941 100.978 19.9069L102.241 14.4188L98.0152 10.7231C97.7917 10.5302 97.6301 10.2756 97.5506 9.99108C97.4711 9.70661 97.4773 9.40499 97.5685 9.12404C97.6596 8.8431 97.8317 8.59534 98.063 8.41183C98.2943 8.22832 98.5746 8.11724 98.8687 8.0925L104.439 7.60969L106.614 2.41969C106.727 2.14736 106.919 1.91474 107.164 1.75112C107.41 1.5875 107.698 1.50019 107.993 1.50019C108.288 1.50019 108.576 1.5875 108.821 1.75112C109.067 1.91474 109.258 2.14736 109.372 2.41969L111.553 7.60969L117.122 8.0925C117.416 8.11724 117.696 8.22832 117.928 8.41183C118.159 8.59534 118.331 8.8431 118.422 9.12404C118.513 9.40499 118.519 9.70661 118.44 9.99108C118.36 10.2756 118.199 10.5302 117.975 10.7231H117.971Z" fill="#FACC15"/>
<path d="M150.425 9.12094C150.334 8.84099 150.163 8.59394 149.933 8.41057C149.703 8.2272 149.423 8.11561 149.13 8.08969L143.562 7.60969L141.38 2.41969C141.266 2.14736 141.075 1.91474 140.829 1.75112C140.584 1.5875 140.295 1.50019 140 1.50019C139.705 1.50019 139.416 1.5875 139.171 1.75112C138.925 1.91474 138.734 2.14736 138.62 2.41969L136.444 7.60969L130.87 8.0925C130.575 8.11724 130.295 8.22832 130.063 8.41183C129.832 8.59534 129.66 8.8431 129.569 9.12404C129.477 9.40499 129.471 9.70661 129.551 9.99108C129.63 10.2756 129.792 10.5302 130.016 10.7231L134.245 14.4188L132.977 19.9069C132.91 20.1941 132.929 20.4947 133.032 20.771C133.135 21.0474 133.317 21.2874 133.556 21.4608C133.794 21.6343 134.078 21.7336 134.373 21.7464C134.668 21.7591 134.96 21.6847 135.212 21.5325L139.993 18.6263L144.785 21.5325C145.038 21.6847 145.329 21.7591 145.624 21.7464C145.919 21.7336 146.203 21.6343 146.442 21.4608C146.68 21.2874 146.862 21.0474 146.965 20.771C147.068 20.4947 147.087 20.1941 147.02 19.9069L145.753 14.4131L149.982 10.7231C150.205 10.5295 150.367 10.2742 150.445 9.98908C150.524 9.70401 150.517 9.40197 150.425 9.12094ZM148.998 9.58969L144.77 13.2797C144.564 13.4587 144.411 13.6904 144.327 13.9499C144.243 14.2094 144.232 14.4869 144.294 14.7525L145.564 20.25L140.776 17.3438C140.543 17.2015 140.274 17.1263 140.001 17.1263C139.727 17.1263 139.459 17.2015 139.226 17.3438L134.444 20.25L135.706 14.7563C135.768 14.4907 135.757 14.2132 135.673 13.9537C135.589 13.6942 135.436 13.4624 135.23 13.2834L131 9.59532C131 9.59251 131 9.58968 131 9.58688L136.572 9.105C136.845 9.08102 137.105 8.98322 137.325 8.82213C137.546 8.66105 137.718 8.44281 137.824 8.19094L140 3.0075L142.175 8.19094C142.281 8.44281 142.453 8.66105 142.674 8.82213C142.894 8.98322 143.154 9.08102 143.427 9.105L149 9.58688C149 9.58688 149 9.5925 149 9.59344L148.998 9.58969Z" fill="#FACC15"/>
</svg>
