<svg width="568" height="379" viewBox="0 0 568 379" fill="none" xmlns="http://www.w3.org/2000/svg">
<path d="M506.906 46.9547C507.353 43.7436 502.816 41.1005 499.416 40.8278C497.788 40.6915 496.099 40.9414 494.561 40.4037C491.229 39.245 489.896 34.9358 486.647 33.5877C484.216 32.5578 481.414 33.4741 479.074 34.6631C476.734 35.8522 474.386 37.3441 471.75 37.5107C469.478 37.6546 466.972 36.8064 464.934 37.9273C463.42 38.7603 462.663 40.4795 461.284 41.4943C459.906 42.5091 458.179 42.6985 456.505 42.7893C454.832 42.8802 453.105 42.8954 451.583 43.5921C450.06 44.2889 448.803 45.8641 449.121 47.5454L506.906 46.9547Z" fill="#F5F5F5"/>
<path d="M142.106 104.141H78.0963V307H142.106V104.141Z" fill="#F5F5F5"/>
<path d="M142.106 104.141H110.101V306.44H142.106V104.141Z" fill="#EBEBEB"/>
<path d="M108.011 84.2306H85.4045V104.148H108.011V84.2306Z" fill="#F5F5F5"/>
<path d="M108.003 84.2306H102.619V104.148H108.003V84.2306Z" fill="#EBEBEB"/>
<path d="M72.7645 104.141V102.982H143.977V104.141" fill="#E0E0E0"/>
<path d="M96.1434 112.828H90.7285V124.248H96.1434V112.828Z" fill="#FAFAFA"/>
<path d="M110.101 128.747C110.101 128.86 102.937 128.959 94.0988 128.959C85.2607 128.959 78.0963 128.86 78.0963 128.747C78.0963 128.633 85.2607 128.527 94.0988 128.527C102.937 128.527 110.101 128.618 110.101 128.747Z" fill="#E0E0E0"/>
<path d="M128.428 112.828H123.014V124.248H128.428V112.828Z" fill="#E0E0E0"/>
<path d="M142.379 128.747C142.379 128.86 135.214 128.959 126.376 128.959C117.538 128.959 110.374 128.86 110.374 128.747C110.374 128.633 117.538 128.527 126.376 128.527C135.214 128.527 142.379 128.618 142.379 128.747Z" fill="#E0E0E0"/>
<path d="M128.428 135.51H123.014V146.938H128.428V135.51Z" fill="#E0E0E0"/>
<path d="M142.379 151.421C142.379 151.535 135.214 151.633 126.376 151.633C117.538 151.633 110.374 151.535 110.374 151.421C110.374 151.308 117.538 151.202 126.376 151.202C135.214 151.202 142.379 151.3 142.379 151.421Z" fill="#E0E0E0"/>
<path d="M128.428 158.873H123.014V170.294H128.428V158.873Z" fill="#E0E0E0"/>
<path d="M142.379 174.785C142.379 174.906 135.214 175.005 126.376 175.005C117.538 175.005 110.374 174.906 110.374 174.785C110.374 174.664 117.538 174.565 126.376 174.565C135.214 174.565 142.379 174.664 142.379 174.785Z" fill="#E0E0E0"/>
<path d="M128.428 182.245H123.014V193.665H128.428V182.245Z" fill="#E0E0E0"/>
<path d="M142.379 198.149C142.379 198.27 135.214 198.368 126.376 198.368C117.538 198.368 110.374 198.27 110.374 198.149C110.374 198.028 117.538 197.929 126.376 197.929C135.214 197.929 142.379 198.028 142.379 198.149Z" fill="#E0E0E0"/>
<path d="M128.428 204.942H123.014V216.363H128.428V204.942Z" fill="#E0E0E0"/>
<path d="M142.379 220.846C142.379 220.967 135.214 221.066 126.376 221.066C117.538 221.066 110.374 220.967 110.374 220.846C110.374 220.725 117.538 220.626 126.376 220.626C135.214 220.626 142.379 220.725 142.379 220.846Z" fill="#E0E0E0"/>
<path d="M128.428 227.73H123.014V239.151H128.428V227.73Z" fill="#E0E0E0"/>
<path d="M128.428 250.814H123.014V262.234H128.428V250.814Z" fill="#E0E0E0"/>
<path d="M142.379 243.634C142.379 243.755 135.214 243.854 126.376 243.854C117.538 243.854 110.374 243.755 110.374 243.634C110.374 243.513 117.538 243.422 126.376 243.422C135.214 243.422 142.379 243.521 142.379 243.634Z" fill="#E0E0E0"/>
<path d="M96.1434 135.858H90.7285V147.279H96.1434V135.858Z" fill="#FAFAFA"/>
<path d="M110.101 151.762C110.101 151.883 102.937 151.982 94.0988 151.982C85.2607 151.982 78.0963 151.883 78.0963 151.762C78.0963 151.641 85.2607 151.542 94.0988 151.542C102.937 151.542 110.101 151.641 110.101 151.762Z" fill="#E0E0E0"/>
<path d="M96.1434 158.881H90.7285V170.302H96.1434V158.881Z" fill="#FAFAFA"/>
<path d="M110.101 174.793C110.101 174.914 102.937 175.012 94.0988 175.012C85.2607 175.012 78.0963 174.914 78.0963 174.793C78.0963 174.671 85.2607 174.573 94.0988 174.573C102.937 174.573 110.101 174.671 110.101 174.793Z" fill="#E0E0E0"/>
<path d="M96.1434 181.911H90.7285V193.332H96.1434V181.911Z" fill="#FAFAFA"/>
<path d="M110.101 197.823C110.101 197.937 102.937 198.035 94.0988 198.035C85.2607 198.035 78.0963 197.937 78.0963 197.823C78.0963 197.709 85.2607 197.603 94.0988 197.603C102.937 197.603 110.101 197.702 110.101 197.823Z" fill="#E0E0E0"/>
<path d="M96.1434 204.942H90.7285V216.363H96.1434V204.942Z" fill="#FAFAFA"/>
<path d="M110.101 220.846C110.101 220.967 102.937 221.066 94.0988 221.066C85.2607 221.066 78.0963 220.967 78.0963 220.846C78.0963 220.725 85.2607 220.626 94.0988 220.626C102.937 220.626 110.101 220.725 110.101 220.846Z" fill="#E0E0E0"/>
<path d="M96.1434 227.965H90.7285V239.386H96.1434V227.965Z" fill="#FAFAFA"/>
<path d="M110.101 243.861C110.101 243.983 102.937 244.081 94.0988 244.081C85.2607 244.081 78.0963 243.983 78.0963 243.861C78.0963 243.74 85.2607 243.642 94.0988 243.642C102.937 243.642 110.101 243.755 110.101 243.861Z" fill="#E0E0E0"/>
<path d="M96.1434 250.995H90.7285V262.416H96.1434V250.995Z" fill="#FAFAFA"/>
<path d="M394.677 57.8754H302.411V350.282H394.677V57.8754Z" fill="#F5F5F5"/>
<path d="M394.669 57.8754H348.54V349.479H394.669V57.8754Z" fill="#EBEBEB"/>
<path d="M345.526 29.1725H312.945V57.883H345.526V29.1725Z" fill="#F5F5F5"/>
<path d="M345.526 29.1725H337.763V57.883H345.526V29.1725Z" fill="#EBEBEB"/>
<path d="M294.724 57.8754V56.2017H397.373V57.8754" fill="#E0E0E0"/>
<path d="M328.433 70.4017H320.625V86.8661H328.433V70.4017Z" fill="#FAFAFA"/>
<path d="M348.54 93.3262C348.54 93.5004 338.218 93.6443 325.479 93.6443C312.741 93.6443 302.411 93.5004 302.411 93.3262C302.411 93.152 312.733 93.0157 325.479 93.0157C338.225 93.0157 348.54 93.152 348.54 93.3262Z" fill="#E0E0E0"/>
<path d="M374.963 70.4017H367.155V86.8661H374.963V70.4017Z" fill="#E0E0E0"/>
<path d="M395.078 93.3262C395.078 93.5004 384.748 93.6443 372.01 93.6443C359.271 93.6443 348.941 93.5004 348.941 93.3262C348.941 93.152 359.271 93.0157 372.01 93.0157C384.748 93.0157 395.078 93.152 395.078 93.3262Z" fill="#E0E0E0"/>
<path d="M374.963 103.096H367.155V119.56H374.963V103.096Z" fill="#E0E0E0"/>
<path d="M395.078 126.028C395.078 126.202 384.748 126.338 372.01 126.338C359.271 126.338 348.941 126.202 348.941 126.028C348.941 125.854 359.271 125.71 372.01 125.71C384.748 125.71 395.078 125.854 395.078 126.028Z" fill="#E0E0E0"/>
<path d="M374.963 136.774H367.155V153.239H374.963V136.774Z" fill="#E0E0E0"/>
<path d="M395.078 159.706C395.078 159.881 384.748 160.025 372.01 160.025C359.271 160.025 348.941 159.881 348.941 159.706C348.941 159.532 359.271 159.388 372.01 159.388C384.748 159.388 395.078 159.532 395.078 159.706Z" fill="#E0E0E0"/>
<path d="M374.963 170.461H367.155V186.925H374.963V170.461Z" fill="#E0E0E0"/>
<path d="M395.078 193.385C395.078 193.559 384.748 193.703 372.01 193.703C359.271 193.703 348.941 193.559 348.941 193.385C348.941 193.211 359.271 193.075 372.01 193.075C384.748 193.075 395.078 193.211 395.078 193.385Z" fill="#E0E0E0"/>
<path d="M374.963 203.177H367.155V219.642H374.963V203.177Z" fill="#E0E0E0"/>
<path d="M395.078 226.109C395.078 226.276 384.748 226.42 372.01 226.42C359.271 226.42 348.941 226.276 348.941 226.109C348.941 225.943 359.271 225.791 372.01 225.791C384.748 225.791 395.078 225.935 395.078 226.109Z" fill="#E0E0E0"/>
<path d="M374.963 236.023H367.155V252.487H374.963V236.023Z" fill="#E0E0E0"/>
<path d="M374.963 269.308H367.155V285.772H374.963V269.308Z" fill="#E0E0E0"/>
<path d="M395.078 258.955C395.078 259.129 384.748 259.273 372.01 259.273C359.271 259.273 348.941 259.129 348.941 258.955C348.941 258.781 359.271 258.645 372.01 258.645C384.748 258.645 395.078 258.781 395.078 258.955Z" fill="#E0E0E0"/>
<path d="M328.433 103.596H320.625V120.06H328.433V103.596Z" fill="#FAFAFA"/>
<path d="M348.54 126.528C348.54 126.694 338.218 126.838 325.479 126.838C312.741 126.838 302.411 126.694 302.411 126.528C302.411 126.361 312.733 126.21 325.479 126.21C338.225 126.21 348.54 126.354 348.54 126.528Z" fill="#E0E0E0"/>
<path d="M328.433 136.79H320.625V153.254H328.433V136.79Z" fill="#FAFAFA"/>
<path d="M348.54 159.722C348.54 159.888 338.218 160.032 325.479 160.032C312.741 160.032 302.411 159.888 302.411 159.722C302.411 159.555 312.733 159.404 325.479 159.404C338.225 159.404 348.54 159.547 348.54 159.722Z" fill="#E0E0E0"/>
<path d="M328.433 169.983H320.625V186.448H328.433V169.983Z" fill="#FAFAFA"/>
<path d="M348.54 192.916C348.54 193.082 338.218 193.226 325.479 193.226C312.741 193.226 302.411 193.082 302.411 192.916C302.411 192.749 312.733 192.597 325.479 192.597C338.225 192.597 348.54 192.741 348.54 192.916Z" fill="#E0E0E0"/>
<path d="M328.433 203.177H320.625V219.642H328.433V203.177Z" fill="#FAFAFA"/>
<path d="M348.54 226.109C348.54 226.276 338.218 226.42 325.479 226.42C312.741 226.42 302.411 226.276 302.411 226.109C302.411 225.943 312.733 225.791 325.479 225.791C338.225 225.791 348.54 225.935 348.54 226.109Z" fill="#E0E0E0"/>
<path d="M328.433 236.371H320.625V252.836H328.433V236.371Z" fill="#FAFAFA"/>
<path d="M348.54 259.303C348.54 259.478 338.218 259.614 325.479 259.614C312.741 259.614 302.411 259.478 302.411 259.303C302.411 259.129 312.733 258.985 325.479 258.985C338.225 258.985 348.54 259.129 348.54 259.303Z" fill="#E0E0E0"/>
<path d="M328.433 269.565H320.625V286.03H328.433V269.565Z" fill="#FAFAFA"/>
<path d="M427.234 190.522H376.826V350.274H427.234V190.522Z" fill="#F5F5F5"/>
<path d="M427.234 190.522H402.03V349.835H427.234V190.522Z" fill="#EBEBEB"/>
<path d="M400.379 174.838H382.582V190.522H400.379V174.838Z" fill="#F5F5F5"/>
<path d="M400.379 174.838H396.138V190.522H400.379V174.838Z" fill="#EBEBEB"/>
<path d="M372.623 190.522V189.606H428.711V190.522" fill="#E0E0E0"/>
<path d="M391.041 197.361H386.778V206.358H391.041V197.361Z" fill="#FAFAFA"/>
<path d="M402.03 209.895C402.03 209.986 396.388 210.062 389.428 210.062C382.468 210.062 376.826 209.986 376.826 209.895C376.826 209.804 382.468 209.721 389.428 209.721C396.388 209.721 402.03 209.781 402.03 209.895Z" fill="#E0E0E0"/>
<path d="M416.465 197.361H412.201V206.358H416.465V197.361Z" fill="#E0E0E0"/>
<path d="M427.454 209.895C427.454 209.986 421.812 210.062 414.852 210.062C407.892 210.062 402.25 209.986 402.25 209.895C402.25 209.804 407.892 209.721 414.852 209.721C421.812 209.721 427.454 209.781 427.454 209.895Z" fill="#E0E0E0"/>
<path d="M416.465 215.227H412.201V224.224H416.465V215.227Z" fill="#E0E0E0"/>
<path d="M427.454 227.753C427.454 227.851 421.812 227.927 414.852 227.927C407.892 227.927 402.25 227.851 402.25 227.753C402.25 227.654 407.892 227.579 414.852 227.579C421.812 227.579 427.454 227.662 427.454 227.753Z" fill="#E0E0E0"/>
<path d="M416.465 233.63H412.201V242.627H416.465V233.63Z" fill="#E0E0E0"/>
<path d="M427.454 246.133C427.454 246.224 421.812 246.308 414.852 246.308C407.892 246.308 402.25 246.224 402.25 246.133C402.25 246.042 407.892 245.959 414.852 245.959C421.812 245.959 427.454 246.058 427.454 246.133Z" fill="#E0E0E0"/>
<path d="M416.465 252.025H412.201V261.023H416.465V252.025Z" fill="#E0E0E0"/>
<path d="M427.454 264.559C427.454 264.65 421.812 264.726 414.852 264.726C407.892 264.726 402.25 264.65 402.25 264.559C402.25 264.468 407.892 264.385 414.852 264.385C421.812 264.385 427.454 264.461 427.454 264.559Z" fill="#E0E0E0"/>
<path d="M416.465 269.906H412.201V278.903H416.465V269.906Z" fill="#E0E0E0"/>
<path d="M427.454 282.432C427.454 282.531 421.812 282.607 414.852 282.607C407.892 282.607 402.25 282.531 402.25 282.432C402.25 282.334 407.892 282.258 414.852 282.258C421.812 282.258 427.454 282.334 427.454 282.432Z" fill="#E0E0E0"/>
<path d="M416.465 287.855H412.201V296.852H416.465V287.855Z" fill="#E0E0E0"/>
<path d="M416.465 306.031H412.201V315.028H416.465V306.031Z" fill="#E0E0E0"/>
<path d="M427.454 300.381C427.454 300.472 421.812 300.548 414.852 300.548C407.892 300.548 402.25 300.472 402.25 300.381C402.25 300.29 407.892 300.207 414.852 300.207C421.812 300.207 427.454 300.283 427.454 300.381Z" fill="#E0E0E0"/>
<path d="M391.041 215.499H386.778V224.496H391.041V215.499Z" fill="#FAFAFA"/>
<path d="M402.03 228.025C402.03 228.124 396.388 228.2 389.428 228.2C382.468 228.2 376.826 228.124 376.826 228.025C376.826 227.927 382.468 227.851 389.428 227.851C396.388 227.851 402.03 227.957 402.03 228.025Z" fill="#E0E0E0"/>
<path d="M391.041 233.637H386.778V242.634H391.041V233.637Z" fill="#FAFAFA"/>
<path d="M402.03 246.133C402.03 246.224 396.388 246.3 389.428 246.3C382.468 246.3 376.826 246.224 376.826 246.133C376.826 246.042 382.468 245.959 389.428 245.959C396.388 245.959 402.03 246.065 402.03 246.133Z" fill="#E0E0E0"/>
<path d="M391.041 251.768H386.778V260.765H391.041V251.768Z" fill="#FAFAFA"/>
<path d="M402.03 264.309C402.03 264.408 396.388 264.484 389.428 264.484C382.468 264.484 376.826 264.408 376.826 264.309C376.826 264.211 382.468 264.143 389.428 264.143C396.388 264.143 402.03 264.203 402.03 264.309Z" fill="#E0E0E0"/>
<path d="M391.041 269.906H386.778V278.903H391.041V269.906Z" fill="#FAFAFA"/>
<path d="M402.03 282.432C402.03 282.531 396.388 282.607 389.428 282.607C382.468 282.607 376.826 282.531 376.826 282.432C376.826 282.334 382.468 282.258 389.428 282.258C396.388 282.258 402.03 282.334 402.03 282.432Z" fill="#E0E0E0"/>
<path d="M391.041 288.037H386.778V297.034H391.041V288.037Z" fill="#FAFAFA"/>
<path d="M402.03 300.57C402.03 300.661 396.388 300.737 389.428 300.737C382.468 300.737 376.826 300.661 376.826 300.57C376.826 300.48 382.468 300.396 389.428 300.396C396.388 300.396 402.03 300.472 402.03 300.57Z" fill="#E0E0E0"/>
<path d="M391.041 306.175H386.778V315.172H391.041V306.175Z" fill="#FAFAFA"/>
<path d="M174.437 247.285H120.166V350.282H174.437V247.285Z" fill="#E0E0E0"/>
<path d="M174.437 247.285H148.99V350.282H174.437V247.285Z" fill="#EBEBEB"/>
<path d="M136.426 256.971H131.549V268.823H136.426V256.971Z" fill="#F5F5F5"/>
<path d="M136.426 303.373H131.549V315.225H136.426V303.373Z" fill="#F5F5F5"/>
<path d="M148.99 273.481C148.99 273.587 142.538 273.662 134.601 273.662C126.664 273.662 120.212 273.587 120.212 273.481C120.212 273.375 126.664 273.299 134.601 273.299C142.538 273.299 148.99 273.397 148.99 273.481Z" fill="#F5F5F5"/>
<path d="M136.426 280.35H131.549V292.202H136.426V280.35Z" fill="#F5F5F5"/>
<path d="M148.99 296.875C148.99 296.973 142.538 297.056 134.601 297.056C126.664 297.056 120.212 296.973 120.212 296.875C120.212 296.776 126.664 296.685 134.601 296.685C142.538 296.685 148.99 296.754 148.99 296.875Z" fill="#F5F5F5"/>
<path d="M159.275 256.971H154.397V268.823H159.275V256.971Z" fill="#E0E0E0"/>
<path d="M169.862 256.971H164.985V268.823H169.862V256.971Z" fill="#E0E0E0"/>
<path d="M159.275 279.471H154.397V291.323H159.275V279.471Z" fill="#E0E0E0"/>
<path d="M169.862 279.471H164.985V291.323H169.862V279.471Z" fill="#E0E0E0"/>
<path d="M159.275 301.964H154.397V313.816H159.275V301.964Z" fill="#E0E0E0"/>
<path d="M169.862 301.964H164.985V313.816H169.862V301.964Z" fill="#E0E0E0"/>
<path d="M178.519 244.793H116.092V247.375H178.519V244.793Z" fill="#E0E0E0"/>
<path d="M174.815 247.648C174.815 247.746 162.698 247.83 147.725 247.83C132.753 247.83 120.635 247.746 120.635 247.648C120.635 247.55 132.753 247.459 147.725 247.459C162.698 247.459 174.815 247.512 174.815 247.648Z" fill="#EBEBEB"/>
<path d="M120.787 350.206H33.3908L33.0045 212.076H120.408L120.787 350.206Z" fill="#EBEBEB"/>
<path d="M120.408 212.076H76.7103V350.206H120.408V212.076Z" fill="#E0E0E0"/>
<path d="M73.8475 184.88H42.9862V212.076H73.8475V184.88Z" fill="#EBEBEB"/>
<path d="M73.8475 184.88H66.4938V212.076H73.8475V184.88Z" fill="#E0E0E0"/>
<path d="M122.968 210.486H25.7266V212.068H122.968V210.486Z" fill="#E0E0E0"/>
<path d="M57.6559 223.936H50.2567V239.537H57.6559V223.936Z" fill="white"/>
<path d="M76.7102 245.656C76.7102 245.823 66.9255 245.952 54.8612 245.952C42.7968 245.952 33.0045 245.823 33.0045 245.656C33.0045 245.49 42.7893 245.376 54.8612 245.376C66.9331 245.376 76.7102 245.49 76.7102 245.656Z" fill="#E0E0E0"/>
<path d="M101.74 223.936H94.3409V239.537H101.74V223.936Z" fill="#F5F5F5"/>
<path d="M120.787 245.656C120.787 245.823 111.002 245.952 98.9381 245.952C86.8737 245.952 77.089 245.823 77.089 245.656C77.089 245.49 86.8662 245.361 98.9381 245.361C111.01 245.361 120.787 245.49 120.787 245.656Z" fill="#EBEBEB"/>
<path d="M101.74 254.903H94.3409V270.504H101.74V254.903Z" fill="#F5F5F5"/>
<path d="M120.787 276.631C120.787 276.79 111.002 276.927 98.9381 276.927C86.8737 276.927 77.089 276.79 77.089 276.631C77.089 276.472 86.8662 276.328 98.9381 276.328C111.01 276.328 120.787 276.465 120.787 276.631Z" fill="#EBEBEB"/>
<path d="M101.74 286.81H94.3409V302.411H101.74V286.81Z" fill="#F5F5F5"/>
<path d="M120.787 308.538C120.787 308.697 111.002 308.833 98.9381 308.833C86.8737 308.833 77.089 308.697 77.089 308.538C77.089 308.379 86.8662 308.235 98.9381 308.235C111.01 308.235 120.787 308.371 120.787 308.538Z" fill="#EBEBEB"/>
<path d="M101.74 318.716H94.3409V334.317H101.74V318.716Z" fill="#F5F5F5"/>
<path d="M120.787 340.437C120.787 340.603 111.002 340.739 98.9381 340.739C86.8737 340.739 77.089 340.603 77.089 340.437C77.089 340.27 86.8662 340.141 98.9381 340.141C111.01 340.141 120.787 340.277 120.787 340.437Z" fill="#EBEBEB"/>
<path d="M57.6559 255.38H50.2567V270.981H57.6559V255.38Z" fill="white"/>
<path d="M76.7102 277.101C76.7102 277.267 66.9255 277.396 54.8612 277.396C42.7968 277.396 33.0045 277.267 33.0045 277.101C33.0045 276.934 42.7893 276.805 54.8612 276.805C66.9331 276.805 76.7102 276.934 76.7102 277.101Z" fill="#E0E0E0"/>
<path d="M57.6559 286.825H50.2567V302.426H57.6559V286.825Z" fill="white"/>
<path d="M76.7102 308.545C76.7102 308.712 66.9255 308.841 54.8612 308.841C42.7968 308.841 33.0045 308.712 33.0045 308.545C33.0045 308.379 42.7893 308.235 54.8612 308.235C66.9331 308.235 76.7102 308.379 76.7102 308.545Z" fill="#E0E0E0"/>
<path d="M57.6559 318.269H50.2567V333.87H57.6559V318.269Z" fill="white"/>
<path d="M76.7102 339.99C76.7102 340.156 66.9255 340.285 54.8612 340.285C42.7968 340.285 33.0045 340.156 33.0045 339.99C33.0045 339.823 42.7893 339.694 54.8612 339.694C66.9331 339.694 76.7102 339.823 76.7102 339.99Z" fill="#E0E0E0"/>
<path d="M535.094 136.32C535.722 131.731 529.247 127.989 524.378 127.565C522.06 127.376 519.644 127.732 517.448 126.967C512.684 125.308 510.783 119.151 506.133 117.19C502.657 115.721 498.651 117.031 495.288 118.704C491.926 120.378 488.586 122.529 484.822 122.771C481.55 122.983 478.006 121.764 475.128 123.37C472.993 124.559 471.872 127.02 469.903 128.474C467.934 129.928 465.472 130.193 463.087 130.322C460.701 130.451 458.225 130.473 456.051 131.473C453.877 132.473 452.075 134.767 452.529 137.115L535.094 136.32Z" fill="#F5F5F5"/>
<path d="M554.459 299.73H484.148V350.274H554.459V299.73Z" fill="#EBEBEB"/>
<path d="M503.006 299.73C503.112 299.73 503.006 310.401 503.006 310.401H497.803V299.73H503.006Z" fill="#F5F5F5"/>
<path d="M519.304 350.274H554.459V299.73H519.304V350.274Z" fill="#E0E0E0"/>
<path d="M495.705 340.383H486.291V347.04H495.705V340.383Z" fill="white"/>
<path d="M502.15 340.383H497.447V347.04H502.15V340.383Z" fill="white"/>
<path d="M547.779 266.816H501.999V299.73H547.779V266.816Z" fill="#EBEBEB"/>
<path d="M514.282 266.816C514.343 266.816 514.282 273.768 514.282 273.768H510.889V266.816H514.282Z" fill="#F5F5F5"/>
<path d="M524.892 299.73H547.779V266.816H524.892V299.73Z" fill="#E0E0E0"/>
<path d="M509.526 293.285H503.399V297.624H509.526V293.285Z" fill="white"/>
<path d="M513.722 293.285H510.655V297.624H513.722V293.285Z" fill="white"/>
<path d="M79.8305 48.0907C80.1864 45.493 76.5209 43.3498 73.7718 43.1301C72.454 43.0241 71.0908 43.221 69.8412 42.7893C67.1451 41.8502 66.0546 38.3665 63.4342 37.2532C61.4651 36.4202 59.2007 37.1623 57.2922 38.1242C55.3838 39.086 53.5056 40.2901 51.3699 40.3962C49.5144 40.5173 47.4999 39.8282 45.8792 40.737C44.6675 41.411 44.0313 42.8045 42.918 43.6224C41.7574 44.342 40.4134 44.7102 39.0481 44.6827C37.6909 44.6442 36.3388 44.8652 35.0645 45.334C33.83 45.8944 32.7925 47.197 33.0651 48.5299L79.8305 48.0907Z" fill="#EBEBEB"/>
<path d="M547.862 100.854C548.211 98.317 544.636 96.2344 541.948 96.0147C540.668 95.9163 539.335 96.1056 538.116 95.6891C535.488 94.7651 534.435 91.3647 531.868 90.2817C529.952 89.4789 527.74 90.1984 525.877 91.1299C524.014 92.0615 522.174 93.2505 520.099 93.4019C518.289 93.5231 516.312 92.8491 514.744 93.7352C513.563 94.394 512.949 95.7497 511.859 96.5524C510.721 97.2496 509.406 97.6045 508.072 97.5748C506.749 97.54 505.43 97.7558 504.187 98.211C502.983 98.7563 501.991 100.029 502.241 101.324L547.862 100.854Z" fill="#EBEBEB"/>
<path d="M160.343 64.184C160.994 59.4355 154.284 55.5277 149.263 55.096C146.854 54.9067 144.363 55.2702 142.091 54.4826C137.161 52.7634 135.191 46.3942 130.382 44.3646C126.785 42.8499 122.65 44.198 119.166 45.955C115.683 47.712 112.237 49.9158 108.344 50.1658C104.951 50.3854 101.278 49.1282 98.3094 50.7792C96.1055 52.0137 94.9468 54.5659 92.9096 56.0805C90.8723 57.5952 88.3277 57.8603 85.8512 57.9966C83.3747 58.1329 80.8225 58.1556 78.5733 59.1856C76.324 60.2156 74.4685 62.5936 74.9305 65.0246L160.343 64.184Z" fill="#F5F5F5"/>
<path d="M554.201 350.274C554.201 350.388 438.557 350.471 295.951 350.471C153.345 350.471 37.7001 350.388 37.7001 350.274C37.7001 350.161 153.322 350.077 295.989 350.077C438.655 350.077 554.201 350.168 554.201 350.274Z" fill="#263238"/>
<path d="M244.278 318.565C245.082 318.753 245.84 319.101 246.506 319.589C247.173 320.077 247.733 320.695 248.155 321.405C248.995 322.829 249.495 324.428 249.617 326.077C249.95 329.251 248.86 332.765 247.527 335.65C244.422 333.946 242.983 330.114 242.324 328.122C241.339 324.972 241.468 318.678 244.278 318.565Z" fill="#FACC15"/>
<path d="M251.677 340.096C251.305 339.249 251.164 338.32 251.266 337.401C251.368 336.482 251.711 335.606 252.26 334.863C252.823 334.131 253.527 333.518 254.329 333.06C255.131 332.603 256.016 332.309 256.933 332.197C257.348 332.099 257.78 332.094 258.197 332.181C258.615 332.269 259.008 332.448 259.349 332.704C259.622 332.994 259.815 333.352 259.906 333.74C259.998 334.128 259.986 334.534 259.871 334.916C259.621 335.675 259.177 336.356 258.584 336.892C256.638 338.801 254.403 340.3 251.677 340.096Z" fill="#FACC15"/>
<path d="M250.428 350.312C250.388 350.097 250.37 349.879 250.375 349.661C250.375 349.191 250.337 348.593 250.314 347.874C250.185 345.894 250.377 343.907 250.882 341.989C251.422 340.065 252.468 338.32 253.911 336.938C254.35 336.528 254.836 336.173 255.358 335.877C255.499 335.793 255.645 335.72 255.797 335.658C255.895 335.612 255.948 335.59 255.956 335.597C255.263 336.018 254.613 336.508 254.017 337.059C252.643 338.454 251.642 340.173 251.109 342.057C250.611 343.954 250.402 345.915 250.488 347.874C250.488 348.631 250.488 349.237 250.488 349.661C250.489 349.879 250.469 350.097 250.428 350.312Z" fill="#263238"/>
<path d="M244.619 323.381C244.659 323.466 244.69 323.555 244.71 323.646C244.77 323.851 244.838 324.116 244.929 324.404C245.119 325.093 245.384 326.085 245.687 327.319C246.315 329.781 247.133 333.189 247.959 336.983C248.784 340.777 249.436 344.216 249.882 346.722C250.102 347.972 250.276 348.994 250.382 349.684C250.435 350.017 250.473 350.289 250.503 350.494C250.51 350.59 250.51 350.686 250.503 350.782C250.467 350.692 250.441 350.598 250.428 350.501C250.382 350.297 250.329 350.032 250.261 349.699C250.125 348.979 249.928 347.972 249.693 346.753C249.208 344.261 248.519 340.815 247.709 337.028C246.898 333.242 246.096 329.826 245.513 327.357C245.225 326.138 244.99 325.146 244.823 324.426L244.642 323.669C244.623 323.574 244.616 323.478 244.619 323.381Z" fill="#263238"/>
<path d="M247.587 342.966C246.859 341.16 245.712 339.553 244.239 338.278C242.767 337.003 241.012 336.097 239.12 335.635C238.159 335.408 236.962 335.385 236.387 336.195C235.811 337.006 236.235 338.127 236.78 338.952C237.956 340.653 239.609 341.967 241.531 342.73C243.453 343.493 245.558 343.67 247.58 343.239" fill="#FACC15"/>
<path d="M240.188 338.483C240.394 338.498 240.597 338.537 240.794 338.596C241.03 338.65 241.262 338.715 241.491 338.793C241.764 338.892 242.074 338.967 242.4 339.119C242.762 339.261 243.116 339.422 243.46 339.603C243.859 339.803 244.246 340.026 244.619 340.27C245.479 340.831 246.271 341.49 246.982 342.231C247.681 342.984 248.291 343.815 248.799 344.708C249.017 345.098 249.211 345.5 249.382 345.912C249.538 346.268 249.674 346.632 249.791 347.003C249.889 347.309 249.97 347.62 250.034 347.934C250.098 348.167 250.143 348.405 250.17 348.646C250.214 348.848 250.236 349.053 250.238 349.259C250.185 349.259 250.087 348.389 249.632 347.056C249.511 346.692 249.369 346.336 249.208 345.988C249.033 345.585 248.833 345.193 248.61 344.814C248.105 343.941 247.503 343.128 246.815 342.39C246.129 341.665 245.368 341.015 244.543 340.452C244.177 340.205 243.798 339.977 243.407 339.77C243.051 339.566 242.695 339.414 242.377 339.27C241.037 338.71 240.173 338.528 240.188 338.483Z" fill="#263238"/>
<path d="M485.451 342.315C485.738 341.209 485.011 340.096 484.193 339.285C483.376 338.475 482.399 337.771 481.974 336.695C481.285 334.969 482.209 332.734 481.035 331.296C480.346 330.447 479.112 330.16 478.498 329.258C478.215 328.757 478.027 328.208 477.945 327.638C477.291 324.77 475.879 322.131 473.856 319.996C473.723 322.552 474.278 325.096 475.461 327.365C476.017 328.236 476.424 329.193 476.666 330.197C476.923 331.841 476.007 333.53 476.408 335.143C476.87 336.983 478.938 338.218 479.036 340.111C479.119 341.716 477.718 343.14 477.824 344.731C477.91 345.411 478.154 346.062 478.536 346.632C479.088 347.692 479.926 348.575 480.956 349.182C481.986 349.789 483.165 350.094 484.36 350.062L487.745 350.183L485.451 342.315Z" fill="#FACC15"/>
<g opacity="0.3">
<path d="M485.451 342.315C485.738 341.209 485.011 340.096 484.193 339.285C483.376 338.475 482.399 337.771 481.974 336.695C481.285 334.969 482.209 332.734 481.035 331.296C480.346 330.447 479.112 330.16 478.498 329.258C478.215 328.757 478.027 328.208 477.945 327.638C477.291 324.77 475.879 322.131 473.856 319.996C473.723 322.552 474.278 325.096 475.461 327.365C476.017 328.236 476.424 329.193 476.666 330.197C476.923 331.841 476.007 333.53 476.408 335.143C476.87 336.983 478.938 338.218 479.036 340.111C479.119 341.716 477.718 343.14 477.824 344.731C477.91 345.411 478.154 346.062 478.536 346.632C479.088 347.692 479.926 348.575 480.956 349.182C481.986 349.789 483.165 350.094 484.36 350.062L487.745 350.183L485.451 342.315Z" fill="black"/>
</g>
<path d="M488.427 350.259C488.735 350.314 489.051 350.314 489.359 350.259C489.733 350.205 490.101 350.113 490.457 349.986C490.948 349.811 491.406 349.555 491.812 349.229C492.061 349.029 492.254 348.768 492.373 348.472C492.473 348.145 492.526 347.806 492.532 347.465C492.538 347.097 492.565 346.73 492.615 346.366C492.677 345.981 492.816 345.613 493.024 345.283C493.571 344.585 494.001 343.802 494.296 342.966C494.461 341.983 494.431 340.976 494.206 340.005C493.961 338.955 493.99 337.86 494.289 336.824C494.652 335.771 495.387 334.81 495.758 333.62C496.129 332.431 495.955 331.121 496.038 329.834C496.061 329.185 496.21 328.547 496.478 327.956C496.75 327.357 497.129 326.797 497.424 326.168C497.94 324.847 498.235 323.45 498.295 322.033C498.379 321.321 498.462 320.602 498.538 319.875C498.587 319.142 498.714 318.416 498.916 317.709C499.141 316.995 499.411 316.297 499.727 315.619C499.884 315.262 500.015 314.896 500.12 314.521C500.181 314.127 500.204 313.763 500.226 313.362C500.264 312.581 500.234 311.798 500.136 311.022C500.045 310.264 499.901 309.462 499.817 308.682V308.545V308.394L499.681 308.462C498.964 308.82 498.34 309.338 497.856 309.977C497.389 310.607 497.014 311.3 496.743 312.036C496.256 313.478 495.904 314.961 495.69 316.467C495.473 317.902 495.001 319.287 494.296 320.556C493.925 321.155 493.479 321.708 493.085 322.291C492.665 322.864 492.378 323.524 492.244 324.222C492.047 325.653 492.835 326.911 492.668 328.175C492.595 328.799 492.386 329.399 492.055 329.932C491.744 330.47 491.388 330.97 491.04 331.447C490.691 331.937 490.389 332.46 490.139 333.007C489.897 333.542 489.756 334.117 489.722 334.703C489.639 335.839 489.798 336.922 489.722 337.945C489.63 338.917 489.347 339.861 488.889 340.724C488.48 341.557 488.026 342.307 487.647 342.996C487.457 343.348 487.285 343.71 487.132 344.079C486.996 344.424 486.897 344.782 486.837 345.147C486.743 345.787 486.743 346.438 486.837 347.078C486.929 347.972 487.264 348.823 487.806 349.54C487.892 349.643 487.983 349.742 488.079 349.835C488.148 349.905 488.224 349.969 488.306 350.024L488.495 350.161C488.257 349.966 488.038 349.748 487.844 349.509C487.318 348.794 486.998 347.948 486.92 347.063C486.846 346.431 486.861 345.791 486.965 345.162C487.032 344.805 487.134 344.455 487.268 344.117C487.422 343.755 487.593 343.401 487.783 343.057C488.162 342.3 488.624 341.588 489.041 340.747C489.511 339.871 489.804 338.911 489.904 337.922C489.995 336.877 489.836 335.786 489.904 334.673C489.94 334.108 490.079 333.553 490.313 333.037C490.562 332.505 490.861 331.998 491.207 331.523C491.547 331.023 491.911 330.523 492.229 329.97C492.575 329.416 492.794 328.793 492.873 328.145C493.039 326.789 492.259 325.525 492.456 324.199C492.59 323.531 492.869 322.9 493.274 322.351C493.653 321.776 494.107 321.231 494.486 320.61C495.21 319.322 495.692 317.913 495.91 316.452C496.128 314.96 496.477 313.49 496.955 312.059C497.223 311.343 497.59 310.667 498.045 310.052C498.504 309.434 499.1 308.931 499.787 308.583L499.636 308.492V308.628C499.719 309.424 499.863 310.196 499.954 310.969C500.044 311.722 500.072 312.482 500.037 313.241C500.028 313.618 499.995 313.995 499.939 314.369C499.841 314.732 499.714 315.087 499.56 315.429C499.242 316.115 498.969 316.821 498.742 317.542C498.539 318.259 498.412 318.995 498.363 319.739C498.28 320.496 498.197 321.193 498.121 321.905C498.062 323.297 497.776 324.671 497.273 325.971C496.993 326.585 496.614 327.153 496.326 327.774C496.052 328.387 495.9 329.049 495.879 329.72C495.804 331.023 495.97 332.303 495.622 333.454C495.273 334.605 494.531 335.567 494.16 336.657C493.856 337.718 493.83 338.84 494.084 339.914C494.309 340.867 494.348 341.854 494.198 342.822C493.904 343.641 493.482 344.408 492.948 345.094C492.736 345.439 492.594 345.822 492.532 346.223C492.485 346.589 492.46 346.959 492.456 347.328C492.457 347.662 492.408 347.993 492.312 348.313C492.199 348.589 492.019 348.833 491.79 349.025C491.393 349.348 490.945 349.604 490.464 349.782C490.114 349.913 489.751 350.01 489.381 350.07C489.155 350.116 488.924 350.139 488.692 350.138L488.427 350.259Z" fill="#263238"/>
<path d="M499.083 310.416C499.08 310.451 499.08 310.487 499.083 310.522L499.007 310.825C498.939 311.09 498.863 311.491 498.734 311.999C498.606 312.506 498.295 313.059 498.03 313.763C497.72 314.546 497.452 315.345 497.227 316.156C496.97 317.065 496.743 318.065 496.47 319.133C496.267 320.282 495.903 321.396 495.387 322.442C495.114 322.988 494.796 323.548 494.554 324.154C494.309 324.777 494.143 325.428 494.062 326.093C493.883 327.468 493.63 328.834 493.304 330.182C492.63 332.954 491.979 335.597 491.396 337.998C490.813 340.399 490.245 342.542 489.79 344.375C489.336 346.207 488.98 347.639 488.73 348.676C488.609 349.169 488.518 349.562 488.45 349.843L488.382 350.153C488.378 350.188 488.378 350.224 488.382 350.259C488.382 350.259 488.382 350.221 488.42 350.153L488.51 349.858C488.586 349.57 488.692 349.184 488.829 348.691C489.094 347.661 489.48 346.207 489.957 344.412C490.434 342.618 490.979 340.437 491.6 338.051C492.221 335.665 492.85 333.007 493.532 330.235C493.856 328.879 494.109 327.506 494.289 326.123C494.369 325.475 494.527 324.84 494.758 324.23C495.001 323.639 495.304 323.086 495.584 322.526C496.097 321.465 496.459 320.339 496.659 319.178C496.894 318.103 497.114 317.103 497.356 316.202C497.598 315.301 497.871 314.498 498.113 313.801C498.356 313.104 498.659 312.536 498.78 312.014C498.901 311.491 498.962 311.105 499.015 310.832L499.083 310.507C499.083 310.454 499.083 310.416 499.083 310.416Z" fill="#263238"/>
<path d="M489.026 350.267C491.237 348.957 491.866 344.965 490.949 342.572C490.033 340.179 488.412 337.983 488.162 335.423C487.973 333.454 488.617 331.439 488.162 329.516C487.549 326.926 485.019 324.919 485.042 322.253C485.042 320.738 485.913 319.345 485.845 317.853C485.761 316.02 484.33 314.566 483.482 312.953C482.149 310.476 482.066 307.561 481.604 304.789C481.142 302.017 480.089 299.048 477.635 297.685C477.279 300.04 476.658 301.653 476.878 304.834C476.954 305.985 478.279 308.174 478.461 310.681C478.567 312.196 478.643 313.71 478.733 315.179C478.752 316.646 478.992 318.101 479.445 319.496C479.847 320.541 480.49 321.496 480.786 322.571C481.346 324.608 480.612 326.812 481.066 328.872C481.445 330.614 482.656 332.113 482.899 333.886C483.247 336.37 481.642 338.952 482.459 341.323C482.868 342.504 483.838 343.451 484.11 344.662C484.33 345.609 484.11 346.601 484.285 347.548C484.595 349.063 487.511 350.259 489.063 350.168" fill="#FACC15"/>
<path d="M478.241 300.025C478.241 300.025 478.241 300.071 478.241 300.154L478.294 300.54C478.339 300.881 478.4 301.381 478.513 302.055C478.627 302.729 478.968 303.433 479.271 304.327C479.574 305.22 479.831 306.22 480.081 307.356C480.331 308.492 480.543 309.742 480.763 311.09C480.938 312.545 481.321 313.968 481.899 315.316C482.202 316.028 482.55 316.732 482.815 317.482C483.068 318.257 483.223 319.061 483.277 319.875C483.402 321.599 483.62 323.316 483.928 325.017C484.602 328.501 485.246 331.833 485.837 334.863C486.428 337.892 487.011 340.58 487.48 342.868C487.95 345.155 488.336 346.972 488.609 348.26C488.737 348.881 488.843 349.373 488.919 349.721L489.01 350.1L489.048 350.229C489.051 350.186 489.051 350.143 489.048 350.1L488.98 349.714C488.912 349.365 488.821 348.866 488.707 348.237C488.45 346.95 488.086 345.109 487.647 342.837C487.208 340.565 486.609 337.771 486.011 334.741C485.413 331.712 484.792 328.402 484.118 324.896C483.812 323.199 483.595 321.488 483.466 319.769C483.408 318.939 483.248 318.12 482.989 317.33C482.717 316.573 482.368 315.853 482.058 315.157C481.486 313.823 481.101 312.416 480.914 310.976C480.687 309.628 480.467 308.371 480.202 307.235C479.973 306.212 479.693 305.201 479.362 304.206C479.081 303.327 478.733 302.6 478.604 301.934C478.476 301.267 478.407 300.79 478.339 300.457C478.339 300.298 478.286 300.177 478.271 300.078C478.262 300.06 478.252 300.042 478.241 300.025Z" fill="#263238"/>
<path d="M424.531 250.321H88.2217V283.932H424.531V250.321Z" fill="#FACC15"/>
<g opacity="0.4">
<path d="M424.531 250.321H88.2217V283.932H424.531V250.321Z" fill="black"/>
</g>
<path d="M351.668 288.173H252.396V319.299H351.668V288.173Z" fill="#455A64"/>
<path d="M183.025 274.094V315.24H216.923L230.509 295.549H478.014V274.094H183.025Z" fill="#263238"/>
<path d="M180.912 143.802C180.875 143.141 180.579 142.52 180.089 142.074C179.599 141.628 178.954 141.392 178.291 141.417C164.894 141.97 101.293 144.885 88.2142 151.171C78.2023 155.988 67.2361 173.967 59.5037 186.077C53.96 194.756 41.7139 214.022 39.2375 223.875C37.1396 232.206 35.8749 249.534 36.0188 258.13L39.5177 303.615H97.1583L102.929 288.589C104.771 283.803 108.02 279.688 112.247 276.785C116.475 273.882 121.483 272.329 126.611 272.33H183.888V196.846L180.912 143.802Z" fill="#FACC15"/>
<path d="M81.383 156.208C73.4462 163.781 65.479 176.656 59.5037 186.077C54.369 194.112 43.4937 211.22 39.9418 221.535C39.8736 221.725 39.8206 221.906 39.76 222.096C41.517 221.611 44.2207 220.619 45.0613 218.953C46.3261 216.431 47.9468 207.79 67.9858 175.171C74.0748 165.227 80.0123 159.411 81.383 156.208Z" fill="#455A64"/>
<path d="M151.3 152.837C136.562 153.678 104.61 155.867 94.4015 159.335C81.1027 163.879 66.1757 199.088 65.4714 200.633L55.414 226.382C55.3576 226.55 55.342 226.73 55.3685 226.905C55.395 227.081 55.4628 227.248 55.5663 227.392C55.6698 227.536 55.8061 227.654 55.964 227.735C56.1218 227.816 56.2967 227.858 56.4742 227.859H82.4735C83.4582 227.859 84.4351 227.685 85.3589 227.344L153.739 201.852C155.248 201.289 156.55 200.277 157.469 198.954C158.388 197.63 158.881 196.057 158.881 194.445V160.009C158.881 159.032 158.682 158.066 158.296 157.168C157.91 156.271 157.345 155.462 156.635 154.79C155.926 154.119 155.086 153.599 154.169 153.264C153.252 152.928 152.275 152.783 151.3 152.837Z" fill="#263238"/>
<path d="M58.3147 225.329C58.3147 225.329 67.948 203.723 71.1894 196.642C76.0817 185.948 87.5099 164.076 95.2271 161.721C102.323 159.593 122.726 157.003 151.444 155.359H151.717C152.95 155.363 154.132 155.856 155.003 156.728C155.874 157.601 156.365 158.784 156.367 160.017V195.233C156.364 196.101 156.097 196.947 155.602 197.66C155.107 198.373 154.407 198.918 153.595 199.224L103.073 205.457C101.048 205.707 99.1013 206.395 97.3685 207.472C95.6357 208.55 94.1582 209.992 93.0384 211.697L84.2837 225.049C83.7697 225.239 83.2261 225.337 82.6781 225.337L58.3147 225.329Z" fill="#455A64"/>
<path d="M101.24 205.843L84.064 224.973L93.5685 161.456L95.9465 160.638L91.2662 207.691C91.2441 207.927 91.2831 208.165 91.3794 208.382C91.4756 208.599 91.626 208.788 91.816 208.93C92.006 209.072 92.2293 209.163 92.4646 209.194C92.6998 209.225 92.9391 209.195 93.1595 209.107L101.24 205.843Z" fill="#263238"/>
<path d="M34.8903 262.545C34.8297 261.719 35.1099 261.03 35.534 261.03L44.7432 260.182C45.5005 260.106 46.2049 261.538 46.2957 263.211L46.7123 270.277C46.7804 271.413 46.4396 272.375 45.9549 272.458L36.564 274.079C36.1399 274.155 35.7309 273.526 35.6704 272.693L34.8903 262.545Z" fill="#EBEBEB"/>
<path d="M101.24 295.557H34.8828V322.162H101.24V295.557Z" fill="#263238"/>
<path d="M145.536 349.95C165.573 349.181 181.192 332.314 180.422 312.277C179.652 292.24 162.785 276.621 142.749 277.391C122.712 278.16 107.093 295.027 107.862 315.064C108.632 335.101 125.499 350.72 145.536 349.95Z" fill="#263238"/>
<path d="M107.867 313.044C107.871 313.076 107.871 313.11 107.867 313.142C107.74 322.763 111.437 332.041 118.146 338.937C124.855 345.834 134.027 349.786 143.648 349.924C153.268 350.063 162.551 346.377 169.455 339.676C176.36 332.975 180.323 323.808 180.472 314.187C180.472 314.187 180.472 314.127 180.472 314.096L107.867 313.044Z" fill="#263238"/>
<path d="M118.674 313.294C118.6 318.335 120.022 323.286 122.762 327.519C125.501 331.752 129.434 335.078 134.064 337.076C138.693 339.073 143.812 339.653 148.771 338.742C153.73 337.83 158.307 335.469 161.924 331.956C165.541 328.443 168.035 323.936 169.09 319.005C170.146 314.075 169.715 308.942 167.853 304.256C165.991 299.57 162.781 295.542 158.63 292.68C154.478 289.819 149.571 288.253 144.53 288.181C137.771 288.083 131.251 290.674 126.402 295.384C121.554 300.093 118.774 306.535 118.674 313.294Z" fill="#FAFAFA"/>
<path d="M144.529 288.181C137.771 288.083 131.251 290.674 126.402 295.384C121.554 300.093 118.774 306.535 118.674 313.294L169.65 314.051C169.749 307.289 167.158 300.765 162.447 295.913C157.736 291.062 151.291 288.28 144.529 288.181Z" fill="#E0E0E0"/>
<path d="M128.641 313.438C128.596 316.508 129.463 319.523 131.132 322.101C132.801 324.678 135.196 326.703 138.016 327.919C140.836 329.135 143.953 329.488 146.973 328.932C149.993 328.377 152.781 326.938 154.983 324.798C157.186 322.658 158.704 319.913 159.346 316.91C159.989 313.907 159.726 310.782 158.592 307.928C157.457 305.074 155.502 302.621 152.973 300.879C150.445 299.137 147.456 298.183 144.386 298.139C140.269 298.081 136.298 299.659 133.345 302.528C130.393 305.397 128.701 309.321 128.641 313.438Z" fill="#263238"/>
<path d="M73.7415 175.898H70.7803C67.4426 175.898 64.7368 178.604 64.7368 181.942V205.972C64.7368 209.31 67.4426 212.016 70.7803 212.016H73.7415C77.0793 212.016 79.785 209.31 79.785 205.972V181.942C79.785 178.604 77.0793 175.898 73.7415 175.898Z" fill="#263238"/>
<path d="M58.5115 234.342H57.7542V196.149C57.7562 194.328 58.4805 192.582 59.7682 191.294C61.056 190.007 62.802 189.282 64.6232 189.28H66.4408V190.038H64.6232C63.0029 190.04 61.4495 190.684 60.3038 191.83C59.158 192.976 58.5135 194.529 58.5115 196.149V234.342Z" fill="#263238"/>
<path d="M63.6691 234.387L61.5637 198.679C61.5341 198.068 61.628 197.458 61.8397 196.885C62.0515 196.311 62.3767 195.787 62.796 195.342C63.2153 194.897 63.72 194.542 64.2799 194.296C64.8399 194.051 65.4435 193.922 66.0547 193.915V194.673C65.545 194.673 65.0407 194.777 64.5727 194.979C64.1048 195.181 63.683 195.477 63.3334 195.848C62.9838 196.218 62.7136 196.657 62.5395 197.136C62.3654 197.615 62.2911 198.125 62.321 198.633L64.4264 234.349L63.6691 234.387Z" fill="#263238"/>
<path d="M66.0546 230.903H55.8457V242.725H66.0546V230.903Z" fill="#263238"/>
<path d="M62.283 208.464H58.1328V209.221H62.283V208.464Z" fill="#263238"/>
<path d="M96.9386 153.86L97.8398 153.739L100.498 153.428L110.798 152.239L149.195 147.869C151.239 147.65 153.322 147.377 155.48 147.188C156.583 147.104 157.692 147.175 158.775 147.4C159.876 147.657 160.938 148.06 161.933 148.596C163.986 149.739 165.65 151.469 166.712 153.565C167.261 154.636 167.632 155.789 167.81 156.98C167.905 157.582 167.958 158.189 167.969 158.798V160.623C167.969 170.4 167.969 180.897 167.969 192.022C167.969 214.272 167.969 239.022 167.969 265.483V265.68H128.08C125.803 265.605 123.524 265.714 121.264 266.006C116.603 266.677 112.206 268.579 108.526 271.518C104.846 274.456 102.017 278.323 100.331 282.72C100.004 283.527 99.7285 284.355 99.5059 285.197C99.2598 286.03 99.065 286.877 98.9228 287.734L98.7259 289.021L98.635 289.665L98.5971 290.309L98.5365 291.604V292.255V292.331C98.7031 292.164 98.3018 292.588 98.332 292.543H47.7498V292.331C47.7498 280.918 47.7498 269.914 47.7498 259.402C47.7498 254.146 47.7498 249.014 47.7498 244.005V236.599C47.7498 235.379 47.7498 234.175 47.7498 232.971C47.7744 231.773 47.8604 230.578 48.0072 229.389C48.5848 224.807 50.0402 220.379 52.2938 216.347C54.379 212.424 56.3985 208.638 58.3524 204.987L69.0914 184.865L77.8083 168.529C78.4445 167.343 79.0554 166.194 79.6411 165.084C79.944 164.538 80.2091 163.985 80.5271 163.47C80.8408 162.967 81.1821 162.482 81.5495 162.016C82.8629 160.379 84.4091 158.942 86.139 157.753C88.5215 156.135 91.1849 154.977 93.9925 154.337C94.9564 154.106 95.936 153.946 96.9234 153.86L96.1661 153.973C95.6738 154.049 94.9468 154.178 93.9925 154.398C91.2015 155.057 88.5568 156.228 86.192 157.851C84.4767 159.042 82.9457 160.479 81.648 162.115C81.2813 162.572 80.9449 163.053 80.6407 163.554C80.3302 164.054 80.0652 164.614 79.7622 165.167L77.9371 168.62L69.2959 184.971C66.0545 191.075 62.4799 197.808 58.6175 205.109L52.5588 216.469C50.3261 220.469 48.8885 224.865 48.3253 229.411C48.181 230.59 48.0976 231.776 48.0754 232.963C48.0754 234.152 48.0754 235.372 48.0754 236.583V243.99C48.0754 248.994 48.0754 254.126 48.0754 259.387C48.0754 269.898 48.0754 280.903 48.0754 292.316L47.8861 292.134H98.2715C98.3245 292.096 97.9079 292.497 98.0821 292.316V292.232V291.581L98.1503 290.263V289.612L98.2487 288.961L98.4457 287.65C98.5895 286.781 98.7868 285.921 99.0364 285.075C99.2629 284.22 99.5437 283.381 99.877 282.561C101.59 278.1 104.461 274.176 108.195 271.194C111.929 268.212 116.391 266.28 121.12 265.597C123.38 265.309 125.659 265.2 127.936 265.271H167.643L167.446 265.46C167.446 239.03 167.446 214.28 167.446 191.999C167.446 180.874 167.446 170.377 167.446 160.6C167.496 159.399 167.445 158.196 167.295 157.003C167.123 155.839 166.762 154.711 166.227 153.663C165.199 151.614 163.575 149.925 161.569 148.816C160.603 148.287 159.568 147.892 158.495 147.642C157.437 147.419 156.354 147.345 155.276 147.423C153.133 147.604 151.035 147.877 148.998 148.097L110.608 152.345L100.301 153.474L97.6429 153.754L96.9386 153.86Z" fill="#263238"/>
<path d="M155.882 237.56C155.882 237.56 156.094 237.56 156.472 237.469C157.029 237.371 157.56 237.159 158.033 236.848C158.778 236.36 159.335 235.634 159.615 234.788C159.787 234.261 159.856 233.706 159.82 233.153C159.804 232.539 159.645 231.938 159.358 231.396C159.028 230.775 158.538 230.255 157.939 229.888C157.339 229.522 156.652 229.323 155.95 229.313H150.952H139.501C138.547 229.314 137.628 229.666 136.917 230.302C136.206 230.937 135.754 231.812 135.646 232.759C135.527 233.658 135.694 234.572 136.123 235.372C136.549 236.128 137.215 236.72 138.016 237.053C138.808 237.328 139.65 237.431 140.485 237.356H142.909H147.263L153.572 237.416H155.291C155.489 237.412 155.687 237.427 155.882 237.462C155.686 237.486 155.489 237.498 155.291 237.5H153.572L147.263 237.56H142.909H140.485C140.061 237.56 139.652 237.56 139.205 237.56C138.751 237.526 138.304 237.424 137.88 237.257C137.004 236.894 136.274 236.249 135.805 235.425C135.335 234.557 135.149 233.563 135.275 232.585C135.392 231.545 135.887 230.585 136.666 229.886C137.446 229.188 138.454 228.801 139.501 228.798H150.952H155.95C157.042 228.82 158.083 229.266 158.853 230.042C159.622 230.818 160.058 231.863 160.07 232.956C160.094 233.534 160.009 234.112 159.82 234.66C159.508 235.539 158.908 236.287 158.116 236.78C157.622 237.088 157.066 237.282 156.488 237.348C156.295 237.443 156.092 237.515 155.882 237.56Z" fill="#263238"/>
<path d="M154.496 228.048C152.338 228.238 150.171 228.301 148.005 228.238C145.838 228.301 143.668 228.238 141.508 228.048C143.668 227.853 145.838 227.787 148.005 227.851C150.171 227.788 152.338 227.853 154.496 228.048Z" fill="white"/>
<path d="M104.262 322.382L98.2034 321.942C99.7862 300.245 102.104 287.264 105.292 282.258C111.411 272.64 117.493 270.898 124.225 269.755C130.496 268.687 136.82 268.937 142.939 269.187L144.454 269.247C157.086 269.739 183.547 269.3 183.835 269.3L183.933 275.359C183.668 275.359 157.041 275.806 144.242 275.306L142.727 275.245C136.918 275.018 130.92 274.768 125.27 275.738C119.25 276.76 115.243 277.934 110.412 285.522C108.95 287.787 106.208 295.655 104.262 322.382Z" fill="#263238"/>
<path d="M485.435 75.2184H187.061V273.882H485.435V75.2184Z" fill="#FACC15"/>
<path d="M481.861 269.951C481.861 268.672 481.8 195.809 481.702 79.7094L481.861 79.8608L190.288 79.9063L190.485 79.7094C190.485 147.332 190.485 211.697 190.485 269.951L190.303 269.77L481.876 269.951L190.303 270.133H190.091V269.951C190.091 211.697 190.091 147.332 190.091 79.7094V79.52H190.31L481.884 79.5579H482.043V79.7169C481.922 195.809 481.861 268.679 481.861 269.951Z" fill="#263238"/>
<g opacity="0.5">
<path d="M229.366 181.79L232.183 238.613L453.469 192.582L449.553 133.351L229.366 181.79Z" fill="black"/>
</g>
<path d="M246.133 221.141L247.648 215.84C250.61 217.115 253.897 217.427 257.046 216.734C260.432 215.976 262.348 214.371 261.901 212.424C260.985 208.161 248.269 213.28 246.429 204.783C245.255 199.3 249.291 194.726 256.683 193.143C260.265 192.385 263.749 192.461 266.392 193.446L265.067 198.649C262.613 197.726 259.941 197.549 257.387 198.141C253.805 198.898 252.003 200.731 252.412 202.64C253.32 207.025 266.081 201.882 267.846 210.084C269.027 215.613 264.915 220.202 257.486 221.793C253.154 222.732 248.761 222.315 246.133 221.141Z" fill="white"/>
<path d="M296.481 185.054L296.867 212.864L290.695 214.189L290.536 202.867L278.456 205.457L278.623 216.817L272.405 218.112L272.019 190.295L278.229 188.962L278.381 199.891L290.46 197.3L290.309 186.372L296.481 185.054Z" fill="white"/>
<path d="M302.797 183.699L308.992 182.366L309.378 210.175L303.168 211.508L302.797 183.699Z" fill="white"/>
<path d="M338.301 184.789C339.755 191.567 335.673 196.907 327.698 198.58L321.753 199.853L321.866 207.509L315.656 208.842L315.293 181.003L326.077 178.731C332.742 177.269 337.18 179.549 338.301 184.789ZM332.166 186.66C331.613 184.07 329.523 183.244 326.395 183.918L321.556 184.956L321.677 194.612L326.895 193.491C330.954 192.597 332.923 190.182 332.166 186.637V186.66Z" fill="white"/>
<path d="M365.792 178.859C367.246 185.675 363.164 190.977 355.189 192.65L349.252 193.93L349.381 201.587L343.17 202.92L342.777 175.111L353.561 172.793C360.248 171.362 364.686 173.641 365.792 178.859ZM359.658 180.738C359.105 178.14 357.007 177.314 353.887 177.989L349.047 179.026L349.169 188.69L354.387 187.569C358.476 186.69 360.43 184.274 359.673 180.738H359.658Z" fill="white"/>
<path d="M370.336 169.203L376.546 167.871L376.94 195.687L370.73 197.02L370.336 169.203Z" fill="white"/>
<path d="M407.264 161.312L407.657 189.121L402.583 190.212L389.065 175.626L389.292 193.044L383.233 194.354L382.84 166.538L387.944 165.439L401.478 180.033L401.205 162.615L407.264 161.312Z" fill="white"/>
<path d="M431.824 169.514L437.466 168.302L437.61 179.746C435.109 182.535 431.772 184.44 428.098 185.176C420.017 186.91 413.905 183.32 412.429 176.428C410.475 167.34 415.662 159.01 425.758 156.829C430.862 155.73 434.944 156.564 437.875 159.101L434.225 163.645C431.953 161.895 429.59 161.532 426.651 162.168C420.403 163.508 417.366 168.863 418.624 174.732C419.479 178.731 422.728 180.866 427.795 179.776C429.325 179.463 430.766 178.814 432.013 177.875L431.824 169.514Z" fill="white"/>
<path d="M273.48 129.216V178.844L399.592 151.111L399.546 102.058L273.48 129.216Z" fill="#FACC15"/>
<g opacity="0.3">
<path d="M273.48 129.216V178.844L399.592 151.111L399.546 102.058L273.48 129.216Z" fill="black"/>
</g>
<path d="M414.049 129.216L458.709 118.757L456.945 114.001L414.049 129.216Z" fill="#FAFAFA"/>
<path d="M214.075 162.637L245.126 155.367L243.899 152.065L214.075 162.637Z" fill="#FAFAFA"/>
<path d="M320.382 237.454L365.042 226.988L363.285 222.239L320.382 237.454Z" fill="#FAFAFA"/>
<path d="M379.583 105.428C379.583 105.534 355.742 111.237 326.289 118.159C296.837 125.081 272.928 130.617 272.897 130.511C272.867 130.405 296.731 124.703 326.198 117.781C355.666 110.858 379.56 105.322 379.583 105.428Z" fill="#FAFAFA"/>
<path d="M273.148 173.861C273.148 173.967 262.924 176.133 250.261 178.678C237.598 181.222 227.321 183.222 227.299 183.116C227.276 183.01 237.523 180.844 250.185 178.291C262.848 175.739 273.125 173.755 273.148 173.861Z" fill="#FAFAFA"/>
<path d="M273.549 169.37C273.514 169.239 273.499 169.104 273.503 168.969C273.503 168.658 273.503 168.28 273.466 167.825C273.466 166.772 273.466 165.349 273.405 163.614C273.405 160.002 273.344 155.117 273.314 149.717C273.284 144.317 273.208 139.425 273.17 135.82C273.17 134.086 273.125 132.662 273.11 131.609V130.458C273.09 130.328 273.09 130.195 273.11 130.064C273.144 130.193 273.162 130.325 273.163 130.458C273.163 130.769 273.208 131.14 273.238 131.602C273.299 132.594 273.36 134.033 273.42 135.813C273.549 139.365 273.647 144.28 273.685 149.71C273.723 155.14 273.685 160.055 273.685 163.607C273.685 165.349 273.64 166.772 273.625 167.825C273.625 168.28 273.625 168.658 273.587 168.969C273.586 169.103 273.573 169.238 273.549 169.37Z" fill="#FAFAFA"/>
<path d="M144.651 169.294C144.651 169.294 144.56 169.385 144.37 169.529L143.537 170.127C142.78 170.65 141.742 171.377 140.425 172.278C137.782 174.066 134.101 176.504 129.996 179.132C125.891 181.76 122.143 184.085 119.394 185.744C118.03 186.569 116.917 187.258 116.145 187.682L115.251 188.182C115.149 188.248 115.04 188.301 114.925 188.341C114.925 188.341 115.016 188.25 115.206 188.122L116.061 187.546L119.25 185.509L129.769 178.799L140.251 172.043L143.439 170.006L144.317 169.461C144.422 169.394 144.534 169.338 144.651 169.294Z" fill="#FAFAFA"/>
<path d="M131.708 172.717C131.708 172.717 131.617 172.808 131.428 172.952L130.595 173.551C129.837 174.066 128.8 174.8 127.474 175.694C124.831 177.489 121.151 179.92 117.053 182.51C112.956 185.1 109.2 187.47 106.451 189.129C105.088 189.954 103.974 190.644 103.202 191.06L102.308 191.567C102.208 191.634 102.098 191.686 101.983 191.719C102.067 191.635 102.161 191.562 102.263 191.499L103.119 190.931L106.299 188.887L116.826 182.184L127.308 175.429L130.496 173.384L131.367 172.846C131.475 172.788 131.589 172.745 131.708 172.717Z" fill="#FAFAFA"/>
<path d="M67.9479 194.763C67.8319 194.556 67.7524 194.331 67.7131 194.097C67.592 193.665 67.4254 193.029 67.236 192.242C66.7381 190.183 66.4839 188.073 66.4787 185.956C66.468 183.816 66.9609 181.704 67.9176 179.791C68.2169 179.218 68.5775 178.68 68.993 178.185C69.1332 177.996 69.3018 177.83 69.4929 177.693C69.0094 178.411 68.5645 179.154 68.16 179.92C67.2969 181.822 66.8552 183.889 66.8649 185.978C66.8879 188.07 67.1136 190.155 67.539 192.204C67.7284 193.048 67.8649 193.903 67.9479 194.763Z" fill="#FAFAFA"/>
<path d="M37.1092 248.458C37.0818 248.189 37.0818 247.917 37.1092 247.648C37.1092 247.103 37.1092 246.315 37.1546 245.376C37.2152 243.43 37.3591 240.741 37.5939 237.803C37.8286 234.864 38.1088 232.168 38.3512 230.229C38.4724 229.26 38.5784 228.48 38.6617 227.957C38.6902 227.677 38.7486 227.4 38.8359 227.132C38.8739 227.413 38.8739 227.699 38.8359 227.98L38.639 230.252C38.4724 232.282 38.2452 234.91 37.9952 237.825C37.7453 240.741 37.5939 243.362 37.45 245.399C37.3818 246.308 37.3212 247.072 37.2758 247.671C37.2527 247.939 37.1968 248.204 37.1092 248.458Z" fill="#FAFAFA"/>
<path d="M120.106 263.158C120.106 263.242 118.644 263.446 116.379 264.181C115.054 264.611 113.761 265.135 112.509 265.748C109.443 267.271 106.67 269.322 104.315 271.807C103.354 272.815 102.465 273.891 101.657 275.026C100.286 276.972 99.6424 278.312 99.5742 278.275C99.6868 277.944 99.8287 277.625 99.9983 277.32C100.168 276.95 100.36 276.591 100.574 276.245C100.816 275.836 101.081 275.359 101.43 274.867C102.214 273.695 103.09 272.589 104.05 271.557C105.24 270.296 106.535 269.138 107.92 268.096C109.318 267.081 110.803 266.192 112.358 265.438C113.628 264.828 114.945 264.321 116.296 263.923C116.864 263.734 117.402 263.628 117.864 263.514C118.261 263.418 118.663 263.342 119.068 263.287C119.409 263.211 119.756 263.168 120.106 263.158Z" fill="#FAFAFA"/>
<path d="M194.688 217.438C194.678 217.33 194.678 217.221 194.688 217.112C194.688 216.88 194.688 216.562 194.688 216.158C194.688 215.295 194.688 214.06 194.635 212.485C194.589 209.274 194.529 204.662 194.445 198.974C194.241 187.546 193.961 171.801 193.65 154.405C193.34 137.009 193.075 121.234 192.969 109.829C192.916 104.126 192.901 99.5061 192.908 96.3177C192.908 94.7348 192.908 93.5004 192.908 92.6446V91.6904C192.908 91.4707 192.908 91.3647 192.908 91.3647C192.918 91.473 192.918 91.5821 192.908 91.6904C192.908 91.9176 192.908 92.2357 192.908 92.6446C192.908 93.5004 192.908 94.7348 192.961 96.3177C193.007 99.5288 193.067 104.133 193.15 109.821C193.355 121.249 193.635 136.994 193.946 154.398C194.256 171.801 194.529 187.561 194.627 198.967C194.68 204.677 194.703 209.289 194.695 212.477C194.695 214.06 194.695 215.295 194.695 216.158C194.695 216.56 194.695 216.878 194.695 217.112C194.699 217.221 194.697 217.33 194.688 217.438Z" fill="#FAFAFA"/>
<path d="M413.807 349.908C433.842 349.107 449.435 332.215 448.634 312.18C447.833 292.144 430.941 276.551 410.905 277.353C390.87 278.154 375.277 295.045 376.079 315.081C376.88 335.117 393.771 350.709 413.807 349.908Z" fill="#263238"/>
<path d="M376.039 313.044C376.039 313.044 376.039 313.112 376.039 313.142C375.9 322.769 379.592 332.057 386.301 338.963C393.01 345.868 402.188 349.825 411.815 349.964C421.442 350.102 430.73 346.411 437.635 339.702C444.541 332.992 448.498 323.814 448.637 314.187V314.096L376.039 313.044Z" fill="#263238"/>
<path d="M386.846 313.294C386.773 318.333 388.196 323.281 390.935 327.512C393.675 331.743 397.607 335.066 402.235 337.062C406.863 339.059 411.978 339.638 416.936 338.726C421.893 337.815 426.468 335.454 430.083 331.943C433.699 328.431 436.192 323.926 437.247 318.998C438.302 314.069 437.872 308.939 436.012 304.255C434.151 299.571 430.944 295.543 426.795 292.682C422.645 289.821 417.741 288.254 412.701 288.181C405.943 288.083 399.422 290.674 394.574 295.384C389.725 300.093 386.946 306.535 386.846 313.294Z" fill="#FAFAFA"/>
<path d="M412.701 288.18C409.354 288.131 406.031 288.742 402.92 289.978C399.809 291.213 396.972 293.049 394.571 295.381C392.171 297.714 390.252 300.496 388.927 303.569C387.601 306.642 386.894 309.947 386.846 313.294L437.814 314.051C437.865 310.703 437.256 307.378 436.022 304.265C434.787 301.153 432.951 298.314 430.619 295.912C428.286 293.509 425.504 291.59 422.429 290.263C419.355 288.937 416.049 288.229 412.701 288.18Z" fill="#E0E0E0"/>
<path d="M396.843 313.438C396.798 316.508 397.665 319.523 399.334 322.101C401.003 324.678 403.399 326.703 406.218 327.919C409.038 329.135 412.155 329.488 415.175 328.932C418.195 328.377 420.983 326.938 423.185 324.798C425.388 322.658 426.906 319.913 427.548 316.91C428.191 313.907 427.928 310.782 426.794 307.928C425.659 305.074 423.704 302.621 421.175 300.879C418.647 299.137 415.658 298.183 412.588 298.139C408.471 298.081 404.5 299.659 401.547 302.528C398.595 305.397 396.903 309.321 396.843 313.438Z" fill="#263238"/>
<path d="M364.611 323.609C364.611 323.609 359.082 272.11 412.444 272.11C461.67 272.11 460.58 316.399 460.11 323.253H452.393C452.393 323.253 456.324 279.6 412.444 279.6C368.564 279.6 372.381 324.139 372.381 324.139C372.381 324.139 369.139 323.98 364.611 323.609Z" fill="#455A64"/>
<path d="M393.192 277.442C393.06 277.509 392.92 277.56 392.776 277.593C392.496 277.691 392.079 277.79 391.564 277.972C390.083 278.443 388.634 279.007 387.224 279.66C382.559 281.8 378.427 284.948 375.124 288.876C371.821 292.805 369.431 297.417 368.125 302.38C367.725 303.875 367.419 305.392 367.208 306.924C367.125 307.47 367.095 307.894 367.049 308.182C367.036 308.33 367.011 308.477 366.973 308.621C366.955 308.475 366.955 308.328 366.973 308.182C366.973 307.886 366.973 307.424 367.064 306.909C367.214 305.351 367.483 303.807 367.867 302.29C369.108 297.25 371.489 292.563 374.827 288.589C378.165 284.614 382.37 281.459 387.118 279.365C388.547 278.728 390.02 278.196 391.526 277.775C392.056 277.623 392.48 277.54 392.761 277.472C392.903 277.446 393.048 277.435 393.192 277.442Z" fill="#FAFAFA"/>
<path d="M524.264 329.849L530.717 339.558L533.617 348.707C533.665 348.864 533.745 349.009 533.852 349.134C533.959 349.258 534.091 349.359 534.239 349.43C534.387 349.501 534.548 349.541 534.712 349.547C534.876 349.553 535.04 349.524 535.192 349.464C535.377 349.402 535.543 349.294 535.675 349.151C535.807 349.008 535.902 348.835 535.95 348.646C536.541 346.253 538.669 337.437 538.161 336.748C537.654 336.059 532.027 326.062 532.027 326.062L524.264 329.849Z" fill="#455A64"/>
<g opacity="0.6">
<path d="M535.192 349.456L537.706 336.082L537.972 336.498C538.202 336.858 538.296 337.288 538.237 337.71C538.078 338.839 537.563 341.951 535.965 348.616C535.919 348.808 535.825 348.986 535.693 349.133C535.561 349.279 535.394 349.391 535.207 349.456H535.192Z" fill="white"/>
</g>
<g opacity="0.6">
<path d="M533.67 334.181C533.613 334.347 533.615 334.527 533.675 334.691C533.736 334.855 533.852 334.994 534.003 335.082C534.167 335.153 534.351 335.159 534.519 335.099C534.686 335.038 534.824 334.916 534.904 334.756C534.974 334.581 534.975 334.385 534.908 334.209C534.841 334.032 534.71 333.887 534.541 333.802C534.363 333.744 534.17 333.759 534.003 333.843C533.835 333.926 533.708 334.072 533.647 334.249" fill="white"/>
</g>
<path d="M534.715 343.731C534.285 343.569 533.827 343.494 533.367 343.511C532.915 343.596 532.484 343.765 532.095 344.011C532.095 344.011 532.148 343.837 532.36 343.655C532.643 343.429 532.985 343.29 533.345 343.254C533.704 343.211 534.068 343.277 534.39 343.443C534.632 343.572 534.738 343.708 534.715 343.731Z" fill="#263238"/>
<path d="M534.851 345.495C534.468 345.511 534.085 345.554 533.708 345.624C533.35 345.76 533.003 345.922 532.67 346.109C532.61 346.071 532.95 345.564 533.64 345.352C533.838 345.276 534.052 345.25 534.263 345.275C534.474 345.3 534.676 345.376 534.851 345.495Z" fill="#263238"/>
<path d="M534.958 341.209C534.363 341.191 533.768 341.219 533.178 341.292C532.605 341.442 532.046 341.637 531.504 341.875C531.928 341.41 532.507 341.114 533.132 341.042C533.742 340.884 534.387 340.943 534.958 341.209Z" fill="#263238"/>
<path d="M533.238 338.096C533.238 338.172 532.557 338.286 531.837 338.71C531.118 339.134 530.656 339.656 530.595 339.611C530.825 339.12 531.219 338.723 531.709 338.49C532.155 338.18 532.698 338.04 533.238 338.096Z" fill="#263238"/>
<path d="M531.413 335.196C530.883 335.327 530.373 335.531 529.899 335.802C529.484 336.136 529.115 336.523 528.801 336.953C528.801 336.953 528.801 336.756 528.944 336.476C529.142 336.121 529.42 335.818 529.755 335.589C530.09 335.361 530.474 335.213 530.876 335.158C531.224 335.128 531.413 335.165 531.413 335.196Z" fill="#263238"/>
<path d="M529.603 335.241C529.5 335.136 529.418 335.013 529.361 334.878C529.173 334.516 529.062 334.118 529.035 333.711C528.99 333.418 529.04 333.118 529.179 332.856C529.234 332.773 529.312 332.709 529.404 332.673C529.496 332.636 529.597 332.628 529.694 332.651C529.877 332.711 530.033 332.835 530.133 333C530.321 333.345 530.381 333.745 530.305 334.131C530.229 334.517 530.021 334.864 529.717 335.112C529.411 335.351 529.041 335.493 528.654 335.522C528.267 335.55 527.881 335.463 527.543 335.272C527.458 335.225 527.385 335.16 527.328 335.082C527.272 335.003 527.234 334.912 527.217 334.817C527.206 334.718 527.228 334.618 527.278 334.532C527.329 334.446 527.406 334.379 527.498 334.34C527.774 334.239 528.072 334.213 528.361 334.264C528.764 334.309 529.156 334.425 529.52 334.605C529.655 334.662 529.778 334.745 529.883 334.847C529.4 334.643 528.89 334.508 528.369 334.446C528.113 334.411 527.853 334.44 527.611 334.529C527.56 334.549 527.517 334.585 527.488 334.631C527.46 334.678 527.447 334.732 527.452 334.787C527.47 334.848 527.5 334.905 527.54 334.955C527.58 335.004 527.63 335.045 527.687 335.075C527.984 335.231 528.319 335.299 528.653 335.271C528.987 335.242 529.306 335.119 529.573 334.916C529.822 334.699 529.994 334.408 530.062 334.085C530.13 333.763 530.091 333.427 529.951 333.128C529.887 333.01 529.782 332.918 529.656 332.871C529.603 332.856 529.547 332.859 529.495 332.878C529.444 332.897 529.399 332.931 529.368 332.977C529.24 333.207 529.192 333.474 529.232 333.734C529.274 334.253 529.399 334.762 529.603 335.241Z" fill="#263238"/>
<path d="M518.129 335.4L517.372 345.147C517.372 345.147 527.043 348.457 527.081 350.274L508.148 350.229L508.678 334.999L518.129 335.4Z" fill="#455A64"/>
<g opacity="0.6">
<path d="M511.564 344.094C511.379 344.14 511.218 344.253 511.112 344.411C511.007 344.57 510.965 344.762 510.996 344.95C511.039 345.135 511.151 345.297 511.308 345.403C511.465 345.51 511.656 345.554 511.844 345.526C512.039 345.474 512.208 345.352 512.319 345.182C512.429 345.013 512.473 344.809 512.442 344.609C512.383 344.418 512.25 344.257 512.072 344.164C511.895 344.07 511.687 344.05 511.496 344.11" fill="white"/>
</g>
<g opacity="0.6">
<path d="M508.171 350.229L508.224 348.714L526.528 349.396C526.721 349.498 526.885 349.646 527.007 349.827C527.128 350.008 527.203 350.216 527.225 350.433L508.171 350.229Z" fill="white"/>
</g>
<path d="M517.698 345.064C517.698 345.155 517.228 345.177 516.759 345.458C516.289 345.738 516.001 346.117 515.956 346.079C515.911 346.041 516.032 345.503 516.6 345.177C517.168 344.852 517.721 344.981 517.698 345.064Z" fill="#263238"/>
<path d="M519.652 345.965C519.652 346.056 519.266 346.192 518.932 346.571C518.599 346.95 518.501 347.328 518.402 347.328C518.304 347.328 518.273 346.798 518.698 346.336C519.122 345.874 519.652 345.874 519.652 345.965Z" fill="#263238"/>
<path d="M520.69 348.373C520.606 348.373 520.493 347.919 520.75 347.419C521.008 346.919 521.447 346.738 521.507 346.821C521.568 346.904 521.265 347.162 521.061 347.578C520.856 347.995 520.78 348.373 520.69 348.373Z" fill="#263238"/>
<path d="M517.622 342.822C517.577 342.905 517.16 342.761 516.638 342.777C516.115 342.792 515.699 342.936 515.653 342.86C515.608 342.784 516.009 342.459 516.63 342.451C517.251 342.443 517.668 342.754 517.622 342.822Z" fill="#263238"/>
<g opacity="0.3">
<path d="M517.978 337.331L517.849 339.066L508.542 338.611L508.595 337.044L517.978 337.331Z" fill="black"/>
</g>
<path d="M517.736 340.853C517.423 340.927 517.095 340.913 516.789 340.815C516.449 340.737 516.118 340.62 515.805 340.467C515.62 340.378 515.443 340.274 515.274 340.156C515.169 340.094 515.074 340.015 514.994 339.922C514.941 339.851 514.912 339.764 514.912 339.675C514.912 339.587 514.941 339.5 514.994 339.429C515.044 339.367 515.107 339.317 515.18 339.282C515.252 339.248 515.331 339.231 515.411 339.232C515.529 339.238 515.646 339.258 515.759 339.293C515.96 339.352 516.155 339.428 516.342 339.52C516.658 339.679 516.946 339.886 517.198 340.134C517.622 340.558 517.758 340.891 517.721 340.891C517.683 340.891 517.478 340.626 517.047 340.27C516.79 340.068 516.511 339.897 516.214 339.762C516.041 339.681 515.861 339.618 515.676 339.573C515.479 339.513 515.312 339.505 515.252 339.573C515.191 339.641 515.252 339.619 515.252 339.679C515.307 339.748 515.373 339.807 515.449 339.853C515.607 339.964 515.771 340.065 515.941 340.156C516.229 340.314 516.53 340.446 516.842 340.55C517.146 340.631 517.445 340.732 517.736 340.853Z" fill="#263238"/>
<path d="M517.607 340.982C517.439 340.704 517.365 340.381 517.395 340.058C517.395 339.496 517.544 338.945 517.827 338.46C517.88 338.333 517.966 338.223 518.077 338.142C518.188 338.06 518.318 338.011 518.455 337.998C518.539 338.006 518.619 338.036 518.687 338.085C518.754 338.135 518.808 338.201 518.841 338.278C518.881 338.394 518.909 338.513 518.925 338.634C518.957 338.919 518.932 339.208 518.851 339.484C518.771 339.76 518.636 340.016 518.455 340.24C518.061 340.709 517.698 340.808 517.698 340.777C517.698 340.747 518.001 340.565 518.304 340.103C518.474 339.836 518.587 339.537 518.637 339.225C518.663 339.041 518.663 338.855 518.637 338.672C518.637 338.467 518.554 338.308 518.47 338.324C518.387 338.339 518.213 338.46 518.13 338.619C518.029 338.78 517.943 338.95 517.872 339.126C517.755 339.427 517.681 339.744 517.652 340.065C517.577 340.618 517.66 340.967 517.607 340.982Z" fill="#263238"/>
<path d="M525.052 255.221C525.052 255.221 528.528 262.348 529.437 267.43C529.694 268.868 519.485 341.921 519.485 341.921L507.413 341.466L513.071 273.488L511.056 259.856L525.052 255.221Z" fill="#263238"/>
<path d="M495.728 259.637C495.644 264.571 495.897 269.505 496.485 274.405C497.379 281.569 499.423 289.725 500.09 294.285C501.559 304.372 504.452 306.281 504.452 306.281L527.611 335.915L536.699 327.744L516.251 295.08C516.251 295.08 510.814 258.834 511.003 259.811C511.192 260.788 495.728 259.637 495.728 259.637Z" fill="#263238"/>
<path d="M504.937 306.72C505.002 306.829 505.076 306.933 505.156 307.031L505.815 307.879L508.246 311.014C510.299 313.688 513.093 317.353 516.191 321.405C519.288 325.456 522.106 329.137 524.196 331.757C525.233 333.068 526.089 334.12 526.695 334.84L527.392 335.658C527.47 335.758 527.556 335.852 527.649 335.938C527.587 335.827 527.514 335.723 527.43 335.627L526.771 334.772L524.34 331.644L516.395 321.246C513.305 317.179 510.48 313.513 508.39 310.9C507.353 309.583 506.497 308.538 505.899 307.818L505.194 306.993C505.118 306.893 505.032 306.802 504.937 306.72Z" fill="#455A64"/>
<path d="M502.354 265.188C502.341 265.595 502.229 265.992 502.029 266.347C501.218 268.135 499.731 269.53 497.894 270.224C497.525 270.391 497.124 270.477 496.72 270.474C497.936 269.959 499.068 269.262 500.075 268.407C500.996 267.458 501.765 266.372 502.354 265.188Z" fill="#455A64"/>
<path d="M527.346 261.053C526.793 261.305 526.178 261.392 525.576 261.304C524.974 261.215 524.411 260.954 523.954 260.553C524.007 260.455 524.711 260.78 525.635 260.909C526.559 261.038 527.324 260.947 527.346 261.053Z" fill="#455A64"/>
<path d="M514.313 271.125C514.351 271.285 514.379 271.447 514.396 271.61C514.441 271.958 514.494 272.42 514.57 273.004C514.707 274.253 514.903 276.033 515.153 278.199C515.623 282.652 516.267 288.802 517.009 295.875V295.792L520.364 301.154L532.019 319.913C533.481 322.298 534.67 324.237 535.51 325.623L536.419 327.168C536.536 327.345 536.635 327.532 536.715 327.728C536.581 327.563 536.46 327.388 536.351 327.206L535.351 325.691L531.754 320.049C528.725 315.24 524.582 308.644 520 301.358L516.653 295.989V295.943C515.971 288.892 515.365 282.713 514.934 278.252L514.464 273.041C514.419 272.458 514.381 271.996 514.358 271.64C514.322 271.471 514.307 271.298 514.313 271.125Z" fill="#455A64"/>
<path d="M510.791 207.464L518.016 209.781L518.561 225.102C518.561 225.102 522.469 243.104 523.317 245.376C524.313 248.098 525.05 250.907 525.521 253.767C525.521 253.767 524.128 263.931 513.972 265.127C503.816 266.324 494.365 260.492 494.365 260.492C494.365 260.492 490.979 245.346 487.874 231.759C484.921 218.831 487.321 211.122 487.321 211.122L498.447 207.123L510.791 207.464Z" fill="#455A64"/>
<path d="M516.159 215.992L509.52 216.796L509.727 218.502L516.366 217.699L516.159 215.992Z" fill="#FAFAFA"/>
<path d="M517.758 197.664C517.695 197.291 517.495 196.955 517.196 196.722C516.898 196.489 516.523 196.377 516.145 196.407C516.314 196.279 516.448 196.111 516.535 195.919C516.623 195.726 516.66 195.514 516.644 195.303C516.628 195.092 516.56 194.889 516.445 194.711C516.33 194.533 516.172 194.387 515.986 194.286C516.341 193.746 516.482 193.094 516.383 192.456C516.283 191.818 515.95 191.239 515.449 190.833L507.822 201.352C508.409 201.818 509.084 202.16 509.806 202.358C510.528 202.556 511.283 202.605 512.026 202.503C513.514 202.285 514.943 201.77 516.229 200.989C516.583 200.836 516.876 200.57 517.062 200.231C517.206 199.875 517.001 199.36 516.607 199.353C516.975 199.266 517.298 199.044 517.511 198.732C517.724 198.419 517.812 198.038 517.758 197.664Z" fill="#263238"/>
<path d="M498.818 191.916C498.675 191.882 498.526 191.891 498.39 191.944C498.253 191.997 498.136 192.09 498.054 192.211C497.972 192.331 497.928 192.475 497.929 192.621C497.93 192.767 497.976 192.91 498.06 193.029C497.833 192.998 497.601 193.03 497.39 193.12C497.179 193.21 496.997 193.356 496.862 193.541C496.727 193.727 496.644 193.945 496.623 194.174C496.602 194.402 496.643 194.632 496.742 194.839C496.206 194.809 495.674 194.955 495.228 195.256C495.002 195.409 494.826 195.624 494.718 195.875C494.611 196.126 494.577 196.403 494.622 196.672C494.685 196.931 494.847 197.156 495.074 197.297C495.3 197.439 495.573 197.486 495.834 197.429C495.701 197.663 495.637 197.929 495.65 198.198C495.664 198.466 495.754 198.725 495.909 198.944C495.992 199.046 496.096 199.128 496.213 199.186C496.33 199.244 496.459 199.276 496.59 199.279C496.721 199.283 496.851 199.258 496.971 199.207C497.092 199.156 497.2 199.079 497.288 198.982C497.143 199.178 497.067 199.417 497.075 199.662C497.082 199.906 497.17 200.14 497.327 200.328C497.483 200.516 497.697 200.645 497.936 200.697C498.175 200.748 498.424 200.717 498.643 200.61C498.584 200.853 498.602 201.109 498.697 201.341C498.791 201.573 498.956 201.769 499.168 201.902C499.381 202.034 499.63 202.097 499.879 202.08C500.129 202.062 500.367 201.967 500.559 201.807L498.818 191.916Z" fill="#263238"/>
<path d="M499.287 189.901L498.954 208.524C498.93 209.992 499.463 211.415 500.448 212.504C501.432 213.594 502.793 214.269 504.256 214.394C505.045 214.463 505.84 214.37 506.592 214.12C507.343 213.87 508.036 213.469 508.626 212.941C509.217 212.413 509.693 211.769 510.025 211.05C510.357 210.331 510.538 209.551 510.557 208.759C510.557 206.987 510.617 205.533 510.617 205.533C510.617 205.533 515.161 205.23 515.608 200.762C515.873 198.171 515.941 192.264 515.956 187.728C515.962 186.25 515.412 184.825 514.416 183.733C513.421 182.642 512.051 181.965 510.579 181.836L507.876 181.601C506.763 181.567 505.654 181.756 504.615 182.157C503.577 182.558 502.629 183.164 501.829 183.937C501.028 184.711 500.391 185.638 499.954 186.662C499.518 187.686 499.291 188.788 499.287 189.901Z" fill="#FFBE9D"/>
<path d="M510.602 205.533C508.53 205.336 506.558 204.547 504.922 203.261C504.922 203.261 506.073 206.646 510.579 206.638L510.602 205.533Z" fill="#EB996E"/>
<path d="M514.691 192.279C514.608 192.355 514.154 191.954 513.464 191.893C512.775 191.833 512.245 192.135 512.177 192.045C512.109 191.954 512.237 191.855 512.472 191.719C512.786 191.537 513.149 191.457 513.51 191.492C513.869 191.524 514.209 191.67 514.479 191.908C514.676 192.082 514.737 192.242 514.691 192.279Z" fill="#263238"/>
<path d="M507.413 192.575C507.4 192.741 507.322 192.896 507.196 193.007C507.07 193.117 506.906 193.174 506.739 193.165C506.658 193.165 506.577 193.149 506.501 193.117C506.426 193.086 506.357 193.039 506.3 192.98C506.243 192.922 506.198 192.852 506.168 192.776C506.138 192.7 506.124 192.619 506.126 192.537C506.139 192.37 506.217 192.215 506.343 192.105C506.469 191.995 506.633 191.938 506.8 191.946C506.882 191.946 506.963 191.962 507.038 191.994C507.114 192.026 507.182 192.073 507.239 192.131C507.296 192.19 507.341 192.259 507.371 192.335C507.401 192.412 507.415 192.493 507.413 192.575Z" fill="#263238"/>
<path d="M514.078 193.181C514.064 193.347 513.986 193.502 513.861 193.613C513.735 193.723 513.571 193.78 513.404 193.771C513.322 193.769 513.242 193.751 513.167 193.718C513.093 193.685 513.025 193.638 512.969 193.579C512.913 193.52 512.869 193.45 512.839 193.374C512.81 193.298 512.796 193.217 512.798 193.135C512.81 192.968 512.887 192.812 513.013 192.701C513.14 192.59 513.305 192.534 513.472 192.544C513.554 192.544 513.636 192.561 513.711 192.593C513.787 192.626 513.855 192.673 513.912 192.732C513.968 192.792 514.012 192.862 514.041 192.939C514.069 193.016 514.082 193.099 514.078 193.181Z" fill="#263238"/>
<path d="M507.996 191.689C507.913 191.764 507.459 191.363 506.77 191.302C506.08 191.242 505.543 191.545 505.474 191.454C505.406 191.363 505.535 191.265 505.77 191.128C506.083 190.947 506.445 190.868 506.806 190.9C507.166 190.933 507.508 191.076 507.784 191.31C507.981 191.492 508.042 191.651 507.996 191.689Z" fill="#263238"/>
<path d="M510.041 197.013C510.422 196.93 510.811 196.895 511.2 196.907C511.382 196.907 511.548 196.907 511.586 196.77C511.62 196.591 511.596 196.405 511.518 196.24C511.389 195.793 511.253 195.339 511.117 194.854C510.733 193.678 510.446 192.473 510.261 191.249C510.734 192.391 511.116 193.569 511.404 194.771C511.533 195.263 511.662 195.725 511.783 196.164C511.863 196.39 511.863 196.636 511.783 196.861C511.752 196.921 511.708 196.973 511.654 197.014C511.601 197.054 511.539 197.082 511.473 197.096C511.372 197.107 511.27 197.107 511.17 197.096C510.792 197.115 510.412 197.087 510.041 197.013Z" fill="#263238"/>
<path d="M507.974 197.308C508.087 197.308 508.027 198.065 508.618 198.649C509.208 199.232 510.011 199.224 510.011 199.323C510.011 199.421 509.814 199.459 509.481 199.436C509.042 199.402 508.629 199.214 508.315 198.906C508.011 198.613 507.835 198.214 507.822 197.793C507.822 197.475 507.928 197.301 507.974 197.308Z" fill="#263238"/>
<path d="M508.375 189.462C508.284 189.644 507.618 189.462 506.792 189.523C505.967 189.583 505.278 189.712 505.21 189.523C505.141 189.333 505.3 189.273 505.581 189.114C505.95 188.919 506.36 188.816 506.777 188.811C507.195 188.799 507.61 188.885 507.989 189.061C508.269 189.22 508.406 189.379 508.375 189.462Z" fill="#263238"/>
<path d="M514.774 190.295C514.638 190.447 514.176 190.242 513.608 190.182C513.04 190.121 512.548 190.182 512.449 190.023C512.351 189.863 512.495 189.788 512.722 189.659C513.021 189.507 513.358 189.446 513.691 189.485C514.024 189.524 514.337 189.661 514.593 189.879C514.782 190.091 514.835 190.227 514.774 190.295Z" fill="#263238"/>
<path d="M500.499 193.393C500.423 193.355 497.47 192.211 497.326 195.286C497.182 198.361 500.272 197.899 500.287 197.808C500.302 197.717 500.499 193.393 500.499 193.393Z" fill="#FFBE9D"/>
<path d="M499.416 196.589C499.416 196.589 499.355 196.626 499.265 196.664C499.135 196.713 498.993 196.713 498.863 196.664C498.672 196.528 498.521 196.343 498.426 196.128C498.33 195.914 498.293 195.678 498.318 195.445C498.328 195.182 498.392 194.924 498.507 194.688C498.545 194.595 498.604 194.512 498.678 194.445C498.753 194.378 498.842 194.329 498.939 194.301C499.001 194.288 499.066 194.298 499.121 194.329C499.177 194.359 499.22 194.409 499.242 194.468C499.242 194.559 499.242 194.62 499.242 194.62C499.242 194.62 499.31 194.574 499.295 194.445C499.281 194.368 499.241 194.299 499.181 194.248C499.102 194.179 498.999 194.144 498.893 194.15C498.766 194.169 498.646 194.22 498.544 194.298C498.442 194.376 498.362 194.479 498.31 194.597C498.163 194.856 498.082 195.147 498.076 195.445C498.045 195.717 498.096 195.993 498.221 196.237C498.346 196.48 498.541 196.682 498.78 196.816C498.861 196.843 498.947 196.852 499.032 196.843C499.117 196.833 499.199 196.806 499.272 196.763C499.401 196.664 499.424 196.596 499.416 196.589Z" fill="#EB996E"/>
<path d="M498.802 193.12C499.096 193.126 499.382 193.211 499.63 193.367C499.878 193.524 500.079 193.744 500.211 194.006C500.37 194.461 500.37 194.96 500.529 195.415C500.688 195.869 501.105 196.308 501.582 196.233C501.745 196.199 501.897 196.122 502.02 196.01C502.144 195.898 502.236 195.756 502.286 195.596C502.381 195.275 502.412 194.938 502.377 194.604C502.324 193.158 502.15 191.711 502.218 190.272C502.234 188.814 502.676 187.393 503.49 186.183C503.909 185.584 504.483 185.111 505.15 184.812C505.816 184.513 506.551 184.401 507.277 184.486C508.224 184.645 509.049 185.244 509.981 185.441C510.537 185.564 511.114 185.559 511.669 185.428C512.224 185.297 512.742 185.043 513.184 184.683C513.298 184.592 513.805 184.32 513.805 184.32C513.818 183.978 513.734 183.639 513.563 183.343C511.844 181.442 508.504 180.654 505.99 181.071C504.703 181.269 503.475 181.745 502.391 182.465C501.306 183.186 500.392 184.134 499.711 185.244C498.439 187.478 498.469 190.734 498.848 193.135" fill="#263238"/>
<path d="M516.501 186.963C516.23 187.395 515.85 187.748 515.4 187.987C514.949 188.226 514.444 188.343 513.934 188.326C512.914 188.279 511.912 188.04 510.98 187.622C509.504 187.114 507.983 186.752 506.436 186.539C506.285 186.539 506.103 186.539 506.035 186.38C505.967 186.221 506.133 186.009 506.3 185.895C507.731 184.971 511.011 184.615 512.715 184.691C513.569 184.709 514.404 184.945 515.141 185.377C515.878 185.81 516.493 186.423 516.925 187.16" fill="#263238"/>
<path d="M516.054 187.061C515.168 185.943 513.88 185.215 512.465 185.032C509.748 184.804 507.022 185.329 504.584 186.55C502.147 187.771 500.094 189.641 498.651 191.954C498.377 190.649 498.24 189.319 498.242 187.985C498.318 187.069 499.348 181.692 505.058 180.48C505.081 180.465 513.775 177.973 516.054 187.061Z" fill="#455A64"/>
<path d="M499.249 190.795C501.264 188.295 503.799 186.263 506.679 184.842C510.057 183.302 513.621 182.205 517.281 181.578C518.221 181.356 519.197 181.338 520.144 181.525C520.615 181.629 521.047 181.862 521.392 182.2C521.736 182.537 521.978 182.965 522.09 183.434C522.28 184.615 520.061 186.228 519.061 186.842C518.057 187.39 517.022 187.883 515.964 188.319C515.964 188.319 516.183 186.175 512.775 185.426C508.118 184.403 499.249 190.795 499.249 190.795Z" fill="#455A64"/>
<path d="M520.742 181.677C520.42 181.609 520.094 181.558 519.766 181.525C518.86 181.491 517.954 181.552 517.062 181.707C514.106 182.205 511.213 183.026 508.436 184.153C505.639 185.229 503.07 186.822 500.862 188.849C500.204 189.467 499.624 190.164 499.136 190.924C498.803 191.469 498.674 191.802 498.643 191.787C498.613 191.772 498.643 191.696 498.704 191.537C498.787 191.3 498.888 191.069 499.007 190.848C499.452 190.038 500.013 189.298 500.673 188.652C502.854 186.528 505.447 184.873 508.292 183.79C511.094 182.646 514.027 181.852 517.024 181.427C517.937 181.298 518.863 181.281 519.781 181.374C520.041 181.394 520.297 181.455 520.538 181.556C520.674 181.624 520.75 181.662 520.742 181.677Z" fill="#263238"/>
<path d="M509.685 182.866C510.798 182.393 511.979 182.104 513.184 182.01C512.921 181.763 512.628 181.55 512.313 181.374C511.375 181.448 510.455 181.67 509.587 182.033L509.685 182.866Z" fill="#FAFAFA"/>
<path d="M516.57 188.576C516.711 188.38 516.796 188.15 516.819 187.909C516.841 187.669 516.798 187.427 516.696 187.209C516.593 186.99 516.434 186.803 516.234 186.667C516.035 186.53 515.803 186.449 515.562 186.433C515.721 186.369 515.866 186.273 515.986 186.151C516.106 186.029 516.2 185.883 516.261 185.723C516.322 185.563 516.349 185.392 516.341 185.221C516.333 185.05 516.29 184.882 516.214 184.729C516.035 184.431 515.763 184.201 515.439 184.075C515.116 183.949 514.759 183.934 514.426 184.032C514.097 184.141 513.798 184.327 513.554 184.575C513.31 184.822 513.129 185.124 513.025 185.456C512.884 185.247 512.692 185.077 512.467 184.963C512.241 184.849 511.991 184.795 511.739 184.806C511.486 184.816 511.241 184.891 511.026 185.024C510.811 185.156 510.634 185.341 510.511 185.562C510.444 185.372 510.307 185.215 510.128 185.123C509.95 185.03 509.743 185.008 509.549 185.062C509.165 185.189 508.814 185.398 508.519 185.675C508.223 185.956 507.842 186.129 507.436 186.168L507.171 186.281C507.388 186.63 507.725 186.887 508.118 187.004C508.512 187.121 508.935 187.09 509.307 186.917C509.304 187.176 509.384 187.428 509.537 187.636C509.69 187.844 509.906 187.997 510.153 188.071C510.4 188.146 510.665 188.138 510.907 188.048C511.149 187.959 511.356 187.793 511.496 187.576C511.543 187.767 511.637 187.944 511.769 188.089C511.902 188.235 512.068 188.345 512.254 188.409C512.44 188.474 512.639 188.491 512.833 188.46C513.027 188.428 513.211 188.348 513.366 188.228C513.451 188.449 513.586 188.647 513.762 188.807C513.937 188.966 514.147 189.082 514.376 189.145C514.604 189.209 514.844 189.218 515.077 189.171C515.309 189.125 515.527 189.025 515.714 188.879C515.907 189.186 516.033 189.53 516.082 189.889C516.132 190.248 516.104 190.614 516.002 190.962C516.251 190.906 516.48 190.782 516.663 190.602C516.845 190.423 516.973 190.195 517.032 189.947C517.091 189.698 517.08 189.437 516.998 189.195C516.916 188.953 516.768 188.738 516.57 188.576Z" fill="#263238"/>
<path d="M503.763 187.819C502.706 188.287 501.693 188.847 500.734 189.492C499.771 190.15 499 191.052 498.5 192.105L500.014 193.552C500.431 193.688 500.772 193.832 501.09 193.552C501.254 193.409 501.38 193.228 501.457 193.024C501.533 192.821 501.558 192.601 501.529 192.385C501.73 192.428 501.939 192.415 502.133 192.348C502.327 192.28 502.498 192.16 502.629 192.001C502.759 191.843 502.844 191.651 502.873 191.448C502.902 191.244 502.875 191.037 502.794 190.848C502.944 190.812 503.082 190.738 503.194 190.631C503.305 190.525 503.387 190.39 503.43 190.242C503.469 190.094 503.47 189.938 503.431 189.789C503.393 189.641 503.317 189.505 503.21 189.394C503.381 189.384 503.546 189.324 503.683 189.222C503.821 189.119 503.925 188.979 503.984 188.818C504.043 188.657 504.053 188.482 504.014 188.316C503.975 188.149 503.887 187.997 503.763 187.879V187.819Z" fill="#263238"/>
<path d="M518.016 209.781C518.016 209.781 522.492 212.47 523.84 214.863C525.188 217.256 532.352 234.72 532.057 237.583C531.762 240.446 525.037 242.21 525.037 242.21L518.016 233.122L521.227 231.206L518.016 225.019V209.781Z" fill="#455A64"/>
<path d="M525.051 242.188C525.051 242.188 508.784 245.444 502.877 238.401L504.588 232.456C504.588 232.456 515.335 235.001 518.697 233.91L525.051 242.188Z" fill="#FFBE9D"/>
<path d="M526.733 227.738C526.794 227.859 524.824 228.684 522.772 230.252C520.72 231.82 519.425 233.516 519.319 233.433C519.503 233.009 519.759 232.619 520.076 232.282C520.791 231.413 521.601 230.628 522.492 229.942C523.388 229.26 524.355 228.679 525.377 228.207C525.8 227.976 526.258 227.817 526.733 227.738Z" fill="#263238"/>
<path d="M521.515 230.987C520.935 230.069 520.445 229.098 520.053 228.086C519.534 227.134 519.089 226.144 518.72 225.125C519.435 225.956 520.006 226.9 520.409 227.919C520.92 228.885 521.292 229.918 521.515 230.987Z" fill="#263238"/>
<path d="M518.561 223.633C518.518 222.778 518.386 221.931 518.167 221.103C518.03 220.256 517.809 219.424 517.509 218.619C517.691 220.322 518.043 222.001 518.561 223.633Z" fill="#263238"/>
<path d="M489.358 212.053C489.669 212.379 494.137 215.34 495.629 220.384C497.121 225.428 498.764 230.691 498.764 230.691L504.588 231.449L501.302 244.884C499.078 244.541 496.953 243.724 495.073 242.487C493.193 241.251 491.6 239.625 490.404 237.719C487.804 233.19 485.702 228.394 484.133 223.413C484.133 223.413 484.625 207.1 489.358 212.053Z" fill="#455A64"/>
<path d="M502.589 231.184C502.589 231.184 500.12 225.655 499.787 225.579C499.454 225.504 494.69 223.83 494.69 223.83C494.545 224.218 494.545 224.646 494.69 225.034L492.971 225.254C492.971 225.254 493.228 226.306 493.812 226.45L493.191 227.003C493.502 227.413 493.9 227.75 494.357 227.988C494.532 228.074 494.725 228.12 494.921 228.12C495.117 228.12 495.31 228.074 495.485 227.988C495.485 227.988 495.273 228.381 496.243 229.002C497.212 229.623 498.901 230.517 498.901 230.517L502.589 231.184Z" fill="#FFBE9D"/>
<path d="M498.908 230.547C498.908 230.547 497.22 229.623 496.25 229.033C495.41 228.503 495.432 228.139 495.493 228.033C495.319 228.112 495.131 228.152 494.94 228.152C494.749 228.152 494.561 228.112 494.387 228.033C493.93 227.79 493.529 227.452 493.213 227.041L493.781 226.443C493.213 226.276 492.963 225.284 492.956 225.239L494.667 225.019C494.53 224.632 494.53 224.209 494.667 223.822C494.713 223.822 499.446 225.504 499.772 225.572C500.097 225.64 502.476 230.956 502.582 231.184L498.908 230.547ZM494.698 225.026L492.979 225.246C492.979 225.367 493.274 226.291 493.812 226.428L493.183 226.98C493.488 227.387 493.882 227.718 494.334 227.95C494.509 228.035 494.7 228.079 494.895 228.079C495.089 228.079 495.28 228.035 495.455 227.95V227.995C495.455 227.995 495.258 228.389 496.212 228.995C497.167 229.601 498.81 230.51 498.871 230.51L502.529 231.153C501.665 229.237 499.991 225.632 499.742 225.579C499.492 225.526 494.91 223.921 494.652 223.83C494.517 224.22 494.533 224.647 494.698 225.026Z" fill="#EB996E"/>
<path d="M494.842 225.049C495.848 225.538 496.891 225.945 497.962 226.268C498.401 226.428 498.833 226.541 499.173 226.708C499.478 226.852 499.728 227.091 499.885 227.389C500.173 227.904 500.279 228.275 500.325 228.26C500.306 227.923 500.213 227.595 500.052 227.298C499.892 226.956 499.627 226.675 499.295 226.496C498.891 226.314 498.476 226.157 498.053 226.026C497.007 225.623 495.934 225.297 494.842 225.049Z" fill="#EB996E"/>
<path d="M493.728 226.443C493.993 226.601 494.287 226.706 494.592 226.753C495.137 226.905 495.909 227.026 496.727 227.245C497.425 227.419 498.081 227.727 498.659 228.154C499.098 228.495 499.287 228.79 499.325 228.768C499.219 228.468 499.03 228.206 498.78 228.01C498.207 227.519 497.528 227.169 496.795 226.988C495.955 226.761 495.175 226.67 494.63 226.571C494.335 226.495 494.033 226.452 493.728 226.443Z" fill="#EB996E"/>
<path d="M498.098 228.972C497.818 228.593 497.413 228.325 496.955 228.215C496.522 228.02 496.037 227.975 495.576 228.086C495.576 228.169 496.182 228.207 496.871 228.457C497.56 228.707 498.053 229.033 498.098 228.972Z" fill="#EB996E"/>
<path d="M504.089 232.88L518.773 225.473L521.462 230.949C521.462 230.949 507.928 244.361 501.59 244.187" fill="#FFBE9D"/>
<path d="M495.167 217.355C495.189 217.725 495.255 218.091 495.364 218.445C495.523 219.104 495.75 220.013 496.023 221.013C496.296 222.012 496.553 222.921 496.78 223.572C496.864 223.93 496.991 224.276 497.159 224.602C497.132 224.235 497.066 223.872 496.962 223.519C496.803 222.861 496.576 221.952 496.303 220.944C496.031 219.937 495.773 219.044 495.546 218.4C495.46 218.038 495.333 217.687 495.167 217.355Z" fill="#263238"/>
<path d="M495.804 235.584C495.849 235.584 495.978 234.91 496.319 233.857C496.512 233.245 496.809 232.672 497.197 232.161C497.662 231.553 498.333 231.136 499.083 230.987C499.867 230.951 500.652 231.04 501.408 231.252L503.331 231.638C503.573 231.67 503.809 231.731 504.036 231.82C504.196 231.891 504.324 232.021 504.392 232.183C504.422 232.253 504.437 232.327 504.437 232.403C504.437 232.478 504.422 232.553 504.392 232.623C504.392 232.623 504.596 232.501 504.513 232.153C504.484 232.054 504.434 231.961 504.368 231.882C504.301 231.802 504.219 231.738 504.127 231.691C503.886 231.579 503.631 231.5 503.369 231.456L501.453 231.017C500.67 230.783 499.853 230.686 499.037 230.729C498.213 230.891 497.479 231.359 496.985 232.039C496.591 232.578 496.299 233.183 496.122 233.827C495.998 234.255 495.899 234.69 495.826 235.129C495.796 235.279 495.788 235.432 495.804 235.584Z" fill="#263238"/>
<path d="M493.781 232.63C494.183 231.921 494.721 231.298 495.364 230.797C496.076 230.373 496.84 230.042 497.636 229.813C497.383 229.772 497.123 229.793 496.879 229.873C496.289 229.997 495.729 230.239 495.236 230.585C494.736 230.933 494.324 231.392 494.031 231.926C493.888 232.135 493.802 232.378 493.781 232.63Z" fill="#263238"/>
<path d="M484.133 223.413C484.133 223.413 484.133 223.512 484.209 223.701C484.284 223.89 484.368 224.178 484.481 224.504C484.731 225.261 485.072 226.231 485.496 227.45C485.92 228.669 486.435 230.184 487.162 231.774C487.889 233.365 488.745 235.076 489.782 236.811C490.751 238.453 491.988 239.922 493.44 241.158C494.625 242.168 495.952 242.997 497.379 243.619C498.346 244.035 499.365 244.318 500.408 244.46C500.689 244.502 500.972 244.53 501.256 244.543C501.453 244.543 501.551 244.543 501.551 244.543C501.551 244.543 501.15 244.498 500.423 244.369C499.405 244.186 498.413 243.878 497.469 243.452C494.354 242.013 491.755 239.653 490.025 236.689C488.995 234.97 488.162 233.236 487.397 231.683C486.632 230.131 486.14 228.654 485.678 227.397C485.216 226.14 484.86 225.163 484.587 224.474L484.269 223.716C484.234 223.611 484.189 223.509 484.133 223.413Z" fill="#263238"/>
<path d="M488.344 212.371C488.344 212.447 489.465 212.856 490.744 213.621C492.024 214.386 492.941 215.181 493.016 215.136C491.778 213.773 490.157 212.815 488.366 212.387L488.344 212.371Z" fill="#263238"/>
<path d="M499.484 248.057C499.725 248.204 499.979 248.331 500.241 248.436C500.491 248.557 500.794 248.693 501.15 248.829C501.506 248.966 501.907 249.148 502.377 249.291C503.448 249.673 504.54 249.991 505.649 250.246C507.01 250.546 508.388 250.764 509.776 250.897C511.166 251.011 512.563 251.037 513.957 250.973C515.093 250.92 516.226 250.801 517.349 250.617C517.826 250.549 518.258 250.45 518.629 250.374C519 250.299 519.334 250.215 519.591 250.147C519.867 250.086 520.137 250.005 520.401 249.905C520.121 249.933 519.842 249.981 519.568 250.049C519.311 250.102 518.985 250.17 518.607 250.231C518.228 250.291 517.796 250.382 517.319 250.435C516.199 250.596 515.072 250.697 513.941 250.738C512.56 250.783 511.176 250.748 509.799 250.632C508.422 250.504 507.054 250.296 505.702 250.011C504.599 249.77 503.509 249.472 502.437 249.117C501.968 248.981 501.567 248.822 501.203 248.693C500.839 248.564 500.537 248.443 500.287 248.345C500.026 248.231 499.758 248.135 499.484 248.057Z" fill="#263238"/>
<path d="M511.412 255.683C512.431 255.552 513.431 255.298 514.388 254.926C515.373 254.644 516.319 254.242 517.206 253.729C517.206 253.661 515.903 254.146 514.305 254.676C512.707 255.206 511.397 255.615 511.412 255.683Z" fill="#263238"/>
<g opacity="0.3">
<path d="M522.621 242.589C519.265 243.252 515.816 243.304 512.442 242.74C511.216 242.369 509.935 242.216 508.655 242.286C507.642 242.533 506.662 242.904 505.74 243.392C503.997 244.108 502.104 244.382 500.23 244.187C498.356 243.993 496.559 243.337 495.001 242.279C495.549 243.325 496.339 244.225 497.306 244.904C498.273 245.583 499.389 246.02 500.56 246.179C502.902 246.476 505.281 246.264 507.535 245.558C508.876 245.12 510.264 244.841 511.67 244.725C513.457 244.679 515.206 245.262 516.971 245.293C519.041 245.353 521.074 244.739 522.765 243.543L522.621 242.589Z" fill="black"/>
</g>
<g opacity="0.3">
<path d="M516.804 254.252C516.051 255.516 515.012 256.586 513.771 257.375C512.529 258.164 511.119 258.651 509.655 258.796C509.023 258.875 508.381 258.824 507.769 258.644C507.463 258.555 507.179 258.403 506.934 258.198C506.689 257.994 506.488 257.741 506.345 257.455C507.024 257.02 507.776 256.709 508.564 256.539L516.721 254.305" fill="black"/>
</g>
<path d="M521.242 231.168C521.044 231.413 520.823 231.638 520.583 231.842C520.144 232.267 519.508 232.872 518.758 233.645C518.008 234.417 517.115 235.372 516.024 236.318C514.934 237.265 513.692 238.242 512.381 239.257C511.149 240.222 509.856 241.107 508.511 241.907C507.409 242.564 506.242 243.105 505.028 243.521C504.209 243.799 503.368 244.004 502.513 244.134C502.203 244.189 501.888 244.206 501.574 244.187C502.713 243.947 503.835 243.638 504.937 243.263C506.117 242.814 507.253 242.256 508.33 241.597C509.641 240.786 510.905 239.901 512.116 238.946C513.427 237.931 514.676 236.97 515.759 236.046C516.842 235.122 517.751 234.205 518.539 233.448C519.326 232.691 519.993 232.115 520.462 231.729C520.698 231.511 520.96 231.322 521.242 231.168Z" fill="#EB996E"/>
<path d="M296.244 164.272L290.997 138.622L307.98 135.148L308.895 139.619L297.335 141.984L298.585 148.096L309.018 145.962L309.933 150.433L299.5 152.567L301.667 163.163L296.244 164.272ZM318.093 159.803L312.282 160.992L315.89 133.53L322.878 132.1L336.968 155.941L331.157 157.13L320.683 138.656L320.483 138.697L318.093 159.803ZM315.668 149.795L329.395 146.986L330.261 151.22L316.534 154.028L315.668 149.795ZM349.647 134.31C349.34 133.32 348.749 132.623 347.875 132.219C347.001 131.815 345.912 131.746 344.61 132.013C343.725 132.194 343.003 132.472 342.445 132.847C341.885 133.214 341.486 133.648 341.249 134.148C341.021 134.647 340.963 135.173 341.076 135.724C341.153 136.186 341.331 136.567 341.61 136.867C341.897 137.165 342.254 137.401 342.681 137.574C343.106 137.74 343.584 137.864 344.114 137.947C344.643 138.021 345.2 138.064 345.785 138.075L348.202 138.154C349.372 138.176 350.467 138.3 351.488 138.526C352.509 138.752 353.424 139.1 354.233 139.57C355.042 140.039 355.719 140.649 356.264 141.398C356.817 142.146 357.208 143.054 357.434 144.121C357.747 145.693 357.625 147.136 357.067 148.45C356.517 149.755 355.563 150.876 354.206 151.815C352.857 152.743 351.138 153.421 349.051 153.848C346.98 154.272 345.111 154.323 343.445 154.003C341.787 153.681 340.401 152.986 339.287 151.918C338.179 150.84 337.415 149.382 336.996 147.545L342.244 146.472C342.478 147.32 342.871 147.988 343.423 148.475C343.982 148.952 344.659 149.262 345.453 149.404C346.254 149.536 347.123 149.506 348.058 149.315C348.976 149.127 349.746 148.83 350.368 148.424C350.998 148.017 351.452 147.537 351.731 146.984C352.009 146.431 352.085 145.846 351.959 145.228C351.841 144.652 351.571 144.203 351.148 143.88C350.734 143.556 350.173 143.323 349.465 143.181C348.766 143.037 347.925 142.948 346.944 142.914L344.008 142.784C341.737 142.7 339.862 142.227 338.38 141.364C336.899 140.501 335.969 139.122 335.589 137.224C335.263 135.673 335.399 134.232 335.996 132.9C336.602 131.567 337.573 130.425 338.91 129.473C340.246 128.521 341.849 127.854 343.72 127.471C345.624 127.081 347.352 127.067 348.904 127.428C350.465 127.787 351.761 128.466 352.792 129.464C353.823 130.463 354.507 131.723 354.844 133.246L349.647 134.31ZM357.272 129.722L356.357 125.251L377.423 120.941L378.338 125.413L370.485 127.019L374.818 148.199L369.457 149.295L365.125 128.116L357.272 129.722Z" fill="white"/>
</svg>
